<!DOCTYPE svg PUBLIC "-//W3C//DTD SVG 20010904//EN" "http://www.w3.org/TR/2001/REC-SVG-20010904/DTD/svg10.dtd">
<svg version="1.0" xmlns="http://www.w3.org/2000/svg" width="1600px" height="499px" viewBox="0 0 16000 4990" preserveAspectRatio="xMidYMid meet">
<g id="layer101" fill="#000000" stroke="none">
 <path d="M0 2495 l0 -2495 8000 0 8000 0 0 2495 0 2495 -8000 0 -8000 0 0 -2495z"/>
 </g>
<g id="layer102" fill="#1f1f21" stroke="none">
 <path d="M3588 4983 c67 -2 122 -5 122 -7 0 -2 -20 -24 -45 -48 -30 -31 -45 -54 -45 -71 0 -17 -9 -32 -26 -43 -18 -12 -24 -24 -22 -44 1 -14 -7 -42 -18 -61 -20 -34 -29 -62 -39 -123 -2 -15 -16 -44 -31 -63 -17 -22 -29 -53 -33 -85 -6 -46 -9 -51 -40 -62 -25 -8 -37 -19 -42 -39 -4 -15 -21 -43 -38 -63 -17 -19 -31 -45 -31 -57 -1 -35 -33 -121 -58 -152 -12 -15 -22 -33 -22 -41 0 -7 -3 -14 -7 -16 -5 -1 -19 -24 -31 -50 -19 -36 -22 -50 -13 -66 14 -27 14 -32 -2 -26 -21 8 -66 -44 -98 -114 -28 -60 -29 -65 -15 -88 14 -21 14 -23 1 -17 -18 6 -55 -23 -55 -44 0 -8 -9 -26 -20 -40 -11 -14 -20 -34 -20 -43 0 -32 -30 -44 -124 -51 -102 -7 -272 -25 -386 -40 -87 -12 -86 -12 -165 0 -75 11 -130 31 -236 85 -143 74 -162 85 -189 108 -42 37 -102 82 -153 113 -64 40 -113 80 -227 184 -52 48 -133 121 -180 162 -47 40 -137 123 -201 184 -63 60 -141 130 -172 155 -31 25 -59 52 -62 61 -6 17 -115 106 -143 117 -19 7 -23 9 -73 52 -20 16 -42 30 -49 30 -12 0 -93 44 -120 65 -8 7 -53 27 -100 45 -47 19 -105 44 -129 57 -24 13 -51 23 -60 23 -10 0 -21 4 -26 9 -6 5 -45 12 -88 16 -67 6 -77 5 -77 -9 0 -11 9 -16 29 -16 17 0 33 -5 36 -10 4 -6 3 -10 -2 -9 -18 3 -21 -3 -13 -35 5 -25 3 -38 -8 -49 -24 -24 -7 -66 33 -83 18 -7 36 -18 40 -24 3 -5 35 -26 69 -45 84 -47 91 -56 68 -85 l-18 -23 -42 28 c-69 45 -88 16 -45 -69 8 -15 17 -60 19 -100 17 -289 16 -282 32 -279 18 4 15 -2 -18 -35 -31 -32 -39 -76 -21 -111 7 -11 6 -30 -3 -54 -10 -30 -9 -54 5 -142 10 -58 20 -109 23 -113 3 -4 0 -28 -5 -52 -7 -29 -6 -47 1 -54 13 -13 13 -49 -1 -63 -7 -7 -9 -28 -5 -55 14 -101 16 -253 4 -276 -9 -18 -9 -30 0 -56 15 -40 15 -73 2 -81 -12 -8 -13 -66 -1 -97 5 -13 14 -57 21 -98 6 -41 21 -94 33 -117 17 -34 19 -45 9 -55 -26 -26 -8 -78 28 -78 9 0 21 -5 28 -12 15 -15 -3 -48 -26 -48 -40 -1 -47 -16 -27 -59 10 -22 26 -48 36 -57 23 -20 24 -52 4 -78 -19 -26 -19 -45 2 -87 20 -38 18 -66 -4 -91 -17 -18 -14 -51 8 -126 12 -39 12 -45 -4 -53 -21 -12 -22 -32 -3 -62 40 -64 76 -251 58 -301 -9 -23 -9 -55 -2 -112 5 -43 7 -124 4 -179 -2 -55 -4 -104 -4 -110 1 -5 4 -57 6 -115 3 -58 10 -111 16 -117 12 -14 2 -99 -12 -108 -13 -8 -4 -169 11 -193 11 -17 10 -24 -5 -47 -10 -14 -21 -48 -26 -73 -5 -26 -14 -67 -19 -92 -6 -25 -10 -71 -11 -102 0 -67 12 -74 65 -34 40 31 133 76 157 76 10 0 35 15 55 34 21 18 53 41 72 51 19 9 62 46 97 81 34 35 67 64 72 64 5 0 16 10 25 22 8 13 48 57 88 99 41 42 84 91 97 108 13 17 30 31 37 31 8 0 19 10 26 22 14 29 151 214 202 275 20 24 45 59 54 76 8 18 26 44 39 60 12 15 37 55 54 90 17 34 51 88 76 120 24 31 44 61 44 65 0 5 24 35 53 68 30 32 67 77 83 100 16 22 49 58 74 80 24 21 63 58 85 80 78 80 237 164 279 148 9 -3 22 -2 29 4 6 5 55 13 107 16 52 3 127 10 165 15 165 24 336 25 373 2 9 -5 6 -26 -14 -82 -22 -64 -25 -84 -19 -143 8 -87 28 -137 63 -163 58 -43 137 -76 182 -77 58 0 326 52 363 71 71 36 152 43 505 40 281 -2 344 -5 351 -16 6 -10 41 -17 111 -22 58 -4 108 -13 117 -21 9 -7 48 -16 87 -20 131 -13 290 -43 466 -88 19 -5 73 -11 120 -14 47 -3 108 -12 135 -20 28 -7 102 -19 165 -26 63 -7 155 -21 204 -31 55 -12 129 -19 193 -19 115 0 143 -9 143 -45 0 -13 8 -29 18 -34 10 -5 29 -32 42 -60 13 -28 27 -51 31 -51 5 0 13 -18 19 -40 7 -27 24 -51 55 -77 45 -37 45 -38 45 -101 0 -65 9 -92 41 -127 10 -12 24 -36 32 -55 19 -53 48 -98 94 -152 34 -39 41 -53 37 -76 -4 -19 2 -37 20 -61 14 -19 26 -48 26 -64 0 -31 14 -98 37 -169 13 -44 13 -48 -6 -67 -26 -26 -26 -33 -1 -56 19 -17 19 -18 0 -43 -11 -13 -20 -40 -20 -58 0 -24 -6 -37 -21 -45 -15 -8 -20 -18 -16 -35 4 -23 3 -23 -87 -27 -50 -1 343 -3 874 -2 958 0 959 0 141 2 l-824 3 26 20 c14 11 32 20 40 20 9 0 19 5 22 10 3 6 20 10 36 10 17 0 47 9 67 20 20 10 64 32 97 47 33 15 66 33 73 40 7 7 20 13 28 13 8 0 14 5 14 10 0 6 6 10 13 10 6 0 30 14 51 30 22 17 47 30 57 30 9 0 19 7 23 15 3 8 11 15 19 15 7 0 23 9 34 19 11 11 53 36 92 56 40 19 74 42 77 50 3 7 18 18 32 24 63 26 157 87 223 146 25 22 56 47 69 55 50 32 146 118 159 144 8 14 18 26 23 26 5 0 46 34 91 75 183 167 204 185 211 185 4 0 25 14 46 31 34 28 51 33 132 42 51 5 99 14 106 20 16 13 480 11 496 -2 24 -19 137 -34 256 -33 69 1 134 3 145 6 62 13 113 30 140 46 23 14 61 20 155 25 69 4 135 11 148 16 13 5 51 9 86 9 34 0 66 4 72 9 5 6 47 11 94 12 47 1 91 6 98 12 7 6 39 7 78 4 47 -5 76 -2 101 8 24 10 71 15 143 15 58 0 110 3 113 7 4 3 40 5 81 4 45 -1 84 3 98 10 13 7 55 14 93 16 173 8 306 22 319 32 7 6 27 8 43 5 17 -3 40 -1 52 5 12 7 101 16 199 22 97 5 206 17 242 25 36 8 99 19 140 24 41 6 100 15 130 20 52 10 112 20 240 38 30 4 60 11 66 14 6 4 39 10 75 13 35 4 93 15 129 25 164 46 256 70 273 70 9 0 25 4 35 9 38 20 99 41 137 47 22 4 49 13 60 20 20 12 99 35 260 76 44 11 93 27 108 35 15 7 32 11 38 7 6 -3 18 1 28 10 10 10 34 15 63 14 25 0 52 3 59 8 8 5 23 7 33 5 25 -4 96 18 118 37 11 9 27 12 44 8 17 -5 35 -1 50 9 14 9 34 13 48 9 13 -3 27 -1 30 5 4 6 24 11 44 11 20 0 50 7 66 15 15 8 39 12 52 9 13 -3 36 -2 51 4 17 5 38 6 51 1 15 -6 31 -5 45 3 12 6 42 12 67 13 73 3 153 21 165 39 14 18 35 21 35 5 0 -12 22 -10 125 11 71 15 170 29 240 36 33 3 67 8 75 11 8 3 23 5 32 4 9 -1 45 3 80 10 35 6 117 15 183 20 66 4 143 12 170 18 97 19 140 30 184 45 24 9 57 16 72 16 32 0 117 40 164 77 17 13 53 39 80 58 125 84 154 108 179 145 14 22 31 40 36 40 6 0 9 51 8 133 -1 112 -2 122 -8 62 -5 -58 -7 -62 -8 -24 -2 41 -7 51 -42 83 -32 29 -48 36 -80 36 -33 0 -42 -4 -49 -22 -5 -13 -26 -40 -47 -61 -27 -27 -35 -40 -27 -48 8 -8 -3 -23 -40 -53 -70 -57 -116 -79 -133 -65 -17 14 -44 5 -44 -14 0 -14 -6 -14 -105 -1 -42 6 -154 59 -200 96 -5 4 -35 26 -65 47 -30 22 -62 46 -70 53 -8 7 -44 34 -80 60 -36 26 -76 57 -90 68 -32 26 -246 170 -253 170 -24 0 -425 296 -435 321 -2 4 12 9 30 11 20 2 32 8 30 16 -1 8 14 12 53 12 30 0 55 -4 55 -10 0 -15 150 -12 212 4 98 25 190 30 234 11 21 -10 57 -19 79 -22 22 -3 58 -12 80 -20 22 -8 56 -18 75 -22 19 -4 67 -24 106 -44 39 -20 75 -37 81 -37 6 0 16 -7 23 -15 15 -18 68 -45 88 -45 18 0 38 -24 58 -67 14 -32 37 -43 49 -23 12 20 23 9 36 -36 17 -56 33 -64 130 -64 117 0 203 54 244 153 17 42 28 124 17 131 -5 3 -7 16 -5 29 8 42 -139 196 -237 247 -14 7 -29 19 -35 25 -8 10 -106 64 -285 157 -19 10 -40 18 -47 18 -7 0 -13 5 -13 11 0 6 -6 9 -14 6 -7 -3 -40 7 -73 23 -33 16 -86 36 -119 45 -32 10 -70 24 -84 31 -14 8 -72 30 -130 50 -123 42 -176 62 -285 104 -44 17 -100 37 -125 44 -25 7 -56 18 -67 25 -12 6 -34 13 -50 15 -15 2 -50 13 -78 26 -27 12 -75 26 -107 30 -31 5 -94 19 -140 33 -45 14 -107 30 -136 37 -28 7 -55 16 -58 21 -3 5 -16 9 -29 9 -13 0 -27 5 -31 11 -4 7 -22 9 -44 6 -21 -3 -42 -1 -47 3 -16 15 -114 42 -134 37 -11 -3 -32 1 -47 8 -15 8 -92 19 -172 25 -109 9 -159 18 -200 35 -80 33 -202 70 -224 67 -10 -1 -29 4 -40 12 -22 14 -79 18 -281 20 -64 1 -119 6 -131 13 -16 9 -29 10 -52 1 -23 -9 -43 -9 -79 -1 -26 7 -75 12 -107 13 -33 0 -65 5 -71 10 -6 5 -21 7 -33 3 -14 -3 -22 -1 -22 7 0 8 -9 11 -28 7 -19 -4 -38 1 -58 14 -22 14 -47 19 -104 19 -42 0 -103 7 -135 16 -33 9 -88 20 -123 25 -35 5 -76 16 -91 23 -15 8 -46 17 -70 20 -23 2 -49 10 -58 18 -9 7 -46 16 -82 19 -36 4 -84 12 -106 19 -22 7 -67 16 -100 20 -33 4 -76 13 -95 18 -128 38 -149 42 -175 32 -34 -13 -92 -13 -100 0 -3 6 -19 10 -35 10 -16 0 -32 5 -35 10 -3 6 -33 10 -66 10 -32 0 -68 6 -79 12 -15 10 -27 10 -50 1 -22 -8 -38 -8 -60 0 -23 9 -35 9 -50 -1 -24 -15 -66 -16 -75 -2 -8 13 -52 13 -61 -1 -4 -6 -15 -8 -28 -3 -16 6 -349 21 -496 23 -131 1 -741 -20 -785 -27 -33 -6 -150 -13 -260 -16 -110 -4 -218 -11 -240 -16 -22 -5 -67 -10 -100 -10 -33 0 -75 -4 -92 -9 -20 -6 -35 -6 -38 0 -4 5 -14 5 -25 -1 -10 -5 -55 -10 -99 -10 -44 0 -83 -5 -86 -10 -4 -7 -12 -7 -25 0 -18 10 -68 3 -144 -20 -18 -6 -36 -5 -48 1 -11 6 -32 7 -46 3 -41 -11 -49 -12 -169 -24 -62 -6 -125 -17 -140 -25 -16 -7 -57 -16 -93 -20 -36 -4 -75 -13 -87 -21 -11 -7 -52 -16 -90 -20 -37 -4 -84 -15 -103 -25 -45 -24 -112 -24 -183 0 -32 11 -83 22 -115 24 -32 2 -71 11 -87 20 -17 8 -67 17 -111 20 -47 2 -93 11 -113 21 -25 13 -36 15 -46 6 -21 -17 -92 -19 -165 -4 -84 18 -229 18 -305 0 -33 -8 -122 -17 -199 -20 -76 -2 -143 -9 -148 -14 -17 -17 -4 -44 32 -62 99 -50 166 -80 178 -80 13 0 33 -40 25 -52 -2 -5 -10 -8 -18 -8 -8 0 -26 -5 -42 -11 -15 -7 -42 -11 -60 -10 -17 1 -53 -8 -80 -20 -26 -12 -62 -21 -79 -20 -18 1 -36 -4 -44 -14 -9 -11 -22 -14 -45 -9 -19 3 -35 1 -39 -5 -4 -6 -18 -11 -32 -11 -13 0 -24 -3 -24 -8 0 -4 -15 -13 -32 -20 -18 -8 -44 -18 -58 -24 -32 -14 -56 -17 -158 -24 l-83 -6 -117 60 c-115 58 -345 205 -371 236 -7 9 -17 16 -22 16 -4 0 -25 11 -45 25 -20 14 -44 25 -53 25 -9 0 -22 13 -28 30 -6 16 -26 38 -44 49 -19 11 -56 32 -83 48 -27 15 -61 39 -75 53 -39 37 -148 108 -184 118 -18 6 -54 16 -82 23 -48 14 -44 14 130 19 120 4 55 6 -195 6 -206 0 -320 -2 -252 -3z"/>
 </g>
<g id="layer103" fill="#1f2120" stroke="none">
 <path d="M3665 4981 l60 -6 -25 -25 c-14 -14 -24 -29 -22 -33 1 -5 -2 -6 -7 -3 -16 10 -51 -45 -51 -80 0 -27 -4 -34 -19 -34 -22 0 -33 -21 -21 -40 5 -7 -2 -26 -16 -48 -13 -19 -24 -47 -24 -63 0 -15 -4 -31 -10 -34 -5 -3 -10 -20 -10 -38 0 -20 -9 -41 -26 -58 -17 -18 -30 -47 -37 -85 -11 -53 -15 -59 -41 -64 -22 -4 -32 -14 -44 -45 -9 -22 -23 -46 -33 -52 -9 -7 -20 -29 -24 -50 -10 -58 -46 -151 -60 -156 -13 -6 -55 -80 -55 -99 0 -6 -8 -20 -17 -30 -14 -16 -15 -23 -5 -39 15 -24 8 -39 -19 -39 -18 0 -79 -71 -79 -92 0 -6 -8 -26 -17 -45 -13 -28 -14 -39 -5 -54 15 -23 15 -32 1 -24 -14 9 -49 -23 -49 -45 0 -9 -8 -24 -18 -34 -11 -9 -24 -34 -31 -55 -6 -21 -17 -43 -24 -49 -6 -5 -59 -13 -117 -16 -128 -7 -191 -13 -295 -26 -44 -6 -93 -12 -110 -14 -16 -2 -37 -7 -46 -11 -10 -3 -20 -2 -24 4 -3 6 -28 11 -54 11 -26 0 -52 5 -57 10 -6 6 -20 12 -32 15 -37 7 -156 61 -207 95 -16 11 -43 26 -60 33 -16 8 -55 35 -85 61 -30 26 -68 55 -85 63 -16 9 -48 30 -70 48 -22 18 -53 39 -70 48 -16 9 -58 43 -93 77 -34 33 -68 60 -74 60 -6 0 -9 3 -5 6 3 3 -18 27 -46 52 -29 25 -58 52 -65 59 -7 7 -18 13 -24 13 -6 0 -50 41 -99 90 -48 50 -90 90 -93 90 -5 0 -98 84 -168 153 -26 26 -51 47 -56 47 -4 0 -18 16 -32 35 -14 19 -30 35 -36 35 -7 0 -14 7 -18 15 -3 8 -10 15 -17 15 -6 0 -30 16 -53 35 -24 19 -48 35 -54 35 -5 0 -29 16 -52 35 -23 19 -50 35 -60 35 -10 0 -28 11 -41 25 -13 13 -29 25 -36 25 -7 0 -46 18 -88 40 -42 22 -82 40 -89 40 -6 0 -27 11 -45 24 -19 14 -47 28 -64 32 -17 3 -40 12 -50 18 -14 9 -21 7 -31 -6 -7 -10 -25 -18 -38 -18 -32 0 -48 -18 -47 -56 0 -16 -2 -40 -6 -55 -5 -21 -2 -27 20 -37 15 -7 43 -24 62 -39 19 -15 54 -36 77 -47 41 -20 116 -93 82 -80 -10 4 -18 0 -22 -10 -8 -20 -37 -21 -67 -2 -60 38 -85 27 -48 -21 11 -13 17 -31 15 -38 -3 -8 -2 -19 2 -26 4 -6 7 -38 8 -69 1 -32 4 -56 7 -54 3 2 5 -38 3 -89 -1 -62 2 -101 11 -120 15 -31 11 -52 -11 -61 -26 -10 -34 -50 -19 -105 11 -43 11 -52 -1 -62 -11 -9 -13 -24 -8 -58 4 -25 9 -50 12 -56 3 -5 5 -24 3 -41 -1 -18 2 -35 7 -38 6 -3 9 -38 7 -76 -1 -39 1 -73 5 -75 7 -4 -5 -94 -14 -103 -3 -2 2 -22 10 -44 8 -23 12 -60 9 -89 -3 -27 -1 -49 4 -49 11 0 7 -81 -6 -105 -16 -34 -8 -283 12 -335 9 -25 18 -54 19 -65 1 -11 7 -31 13 -45 19 -47 24 -68 15 -74 -5 -3 -9 -19 -10 -36 -1 -30 7 -35 50 -32 14 1 17 -5 15 -33 -2 -29 -7 -35 -29 -41 -40 -8 -41 -17 -12 -71 40 -75 45 -99 26 -132 -14 -24 -14 -33 -4 -53 18 -33 21 -96 5 -109 -15 -13 -18 -85 -3 -94 14 -8 13 -88 -1 -102 -8 -8 -5 -24 13 -60 23 -45 35 -83 55 -163 7 -31 3 -117 -10 -175 -3 -11 2 -35 9 -54 17 -41 18 -116 3 -160 -8 -24 -9 -39 -1 -56 6 -14 7 -27 3 -29 -16 -11 -19 -60 -4 -82 11 -18 12 -27 3 -44 -8 -15 -8 -30 -2 -49 5 -15 8 -40 5 -54 -3 -15 -1 -33 5 -40 24 -30 24 -75 -1 -112 -23 -34 -24 -38 -10 -66 14 -29 14 -54 -1 -90 -4 -9 1 -24 13 -37 20 -24 18 -54 -5 -73 -8 -6 -14 -24 -14 -40 0 -16 -7 -49 -16 -75 -8 -25 -13 -53 -9 -61 3 -9 -2 -24 -10 -34 -22 -23 -16 -83 7 -87 10 -2 28 7 41 20 13 13 34 28 48 34 13 6 49 23 80 37 31 15 61 27 67 27 6 0 17 9 25 21 8 11 33 32 55 47 59 40 162 124 162 132 0 4 9 10 20 13 14 3 20 14 20 31 0 16 6 26 14 26 28 0 176 160 176 190 0 7 6 10 14 7 15 -6 46 22 46 40 0 6 11 18 25 27 14 9 25 23 25 32 0 8 14 29 30 47 46 48 90 108 90 122 0 7 11 20 24 28 13 9 34 39 47 67 12 27 33 57 46 65 13 9 23 19 23 24 0 5 16 37 35 71 19 34 35 68 35 76 0 8 7 17 15 20 16 6 75 88 75 104 0 5 26 35 58 67 31 33 79 85 106 117 26 31 66 69 87 83 22 14 39 33 39 42 0 10 18 27 40 40 22 12 46 31 54 43 17 24 64 50 77 43 4 -3 26 3 48 15 22 11 50 20 63 20 13 0 54 0 91 -1 38 0 75 5 82 11 8 7 19 9 25 5 6 -3 25 -2 43 4 44 13 138 20 292 22 123 1 130 0 148 -22 10 -13 15 -29 11 -38 -30 -73 -39 -170 -23 -254 15 -80 36 -103 125 -136 53 -20 154 -27 179 -12 15 8 35 12 81 15 22 2 47 7 55 11 7 5 34 10 58 12 24 1 68 14 96 28 41 20 67 25 123 25 39 0 73 4 76 9 11 17 451 13 556 -5 52 -9 129 -18 170 -21 41 -3 80 -9 87 -14 6 -6 22 -11 35 -13 13 -1 30 -5 38 -9 8 -3 40 -8 70 -11 129 -12 167 -17 195 -31 27 -12 94 -26 210 -42 22 -3 46 -10 53 -16 8 -6 39 -13 70 -14 140 -9 160 -12 193 -29 23 -12 60 -18 114 -20 44 -1 80 -3 80 -4 0 -1 14 -4 30 -6 17 -3 41 -6 55 -8 14 -2 32 -6 40 -9 14 -5 44 -11 125 -24 17 -2 79 -6 139 -9 83 -3 113 -8 127 -20 10 -9 16 -21 13 -26 -7 -10 44 -88 57 -88 5 0 6 -6 3 -13 -2 -7 5 -24 17 -38 11 -13 27 -40 35 -59 8 -19 35 -56 61 -82 29 -30 43 -51 37 -59 -4 -7 -6 -35 -5 -63 2 -36 8 -55 24 -70 25 -24 52 -75 48 -94 -1 -6 9 -17 22 -23 17 -8 23 -17 20 -30 -3 -10 0 -19 6 -19 6 0 10 -4 8 -9 -1 -5 15 -24 36 -43 31 -27 39 -41 42 -77 3 -24 15 -61 29 -81 14 -22 21 -42 16 -50 -9 -14 13 -104 30 -125 6 -8 9 -22 6 -32 -3 -10 1 -31 9 -47 17 -32 18 -36 8 -35 -35 6 -48 -25 -25 -54 13 -15 13 -21 1 -44 -8 -14 -13 -35 -11 -47 2 -17 1 -18 -8 -6 -8 12 -9 9 -4 -13 5 -21 2 -31 -11 -41 -13 -9 -16 -20 -11 -39 l6 -27 138 2 c121 2 126 3 39 5 -87 3 -97 6 -86 19 16 20 76 45 114 49 34 4 155 63 155 75 0 5 8 6 19 3 11 -3 31 7 53 25 19 17 46 34 61 37 15 4 33 15 40 24 6 10 44 34 82 55 39 21 75 43 80 50 6 7 30 22 55 35 68 35 88 46 107 63 10 8 25 18 33 22 44 19 111 67 240 171 30 24 60 44 65 45 6 0 53 44 105 98 92 95 195 187 228 206 9 5 41 33 71 63 30 29 60 53 67 53 7 0 19 8 26 18 7 9 20 18 28 20 8 2 27 9 42 16 14 8 38 11 52 9 14 -3 34 -2 43 2 10 4 27 9 38 11 33 6 566 4 576 -2 8 -4 375 -9 440 -5 9 1 34 13 55 28 34 23 51 27 129 30 217 7 311 14 330 23 21 10 127 20 257 23 42 2 80 6 83 9 4 4 13 4 20 2 7 -3 16 -1 20 5 4 7 50 11 120 11 63 0 116 4 119 9 3 5 33 7 66 4 38 -4 65 -2 74 6 7 6 21 9 30 5 9 -3 22 -1 30 5 7 6 21 8 30 5 10 -4 25 1 35 10 14 13 39 16 117 16 117 -1 182 3 207 14 10 5 30 6 46 3 16 -3 32 -3 35 0 7 7 17 9 94 19 29 4 55 10 57 14 3 5 56 6 119 3 63 -3 122 -2 133 2 10 5 24 7 32 6 7 -1 25 2 40 7 56 21 68 24 111 26 83 5 165 18 190 31 14 7 63 15 109 19 108 8 160 17 167 27 3 5 24 9 46 9 39 0 72 7 163 33 22 7 45 11 52 9 6 -1 14 2 18 8 3 5 16 10 28 10 12 0 30 7 40 15 11 7 25 11 33 8 8 -3 21 0 29 7 9 7 32 16 53 21 20 4 55 13 77 19 22 6 58 15 80 19 39 8 59 14 100 31 43 18 60 24 70 25 6 1 18 5 28 8 9 4 25 10 35 14 9 3 23 5 29 4 7 -1 23 4 35 11 13 7 27 11 32 10 5 -2 37 6 72 18 35 11 77 20 93 20 16 0 32 4 35 9 6 9 58 19 136 25 25 2 68 13 95 25 29 13 61 20 76 17 14 -3 35 1 45 8 22 15 75 27 121 26 17 0 34 4 38 10 3 6 11 8 16 4 5 -3 16 0 24 6 8 7 24 10 35 7 11 -3 39 1 62 8 32 9 47 9 60 1 13 -8 23 -8 38 1 10 7 32 10 47 7 15 -3 42 0 58 7 17 7 38 11 49 10 10 -2 38 8 62 21 39 20 46 21 54 8 8 -13 15 -13 61 3 28 10 81 21 118 23 36 2 84 11 106 18 22 8 78 17 125 20 104 6 172 16 185 27 6 4 35 7 65 6 75 -2 240 12 280 23 17 5 38 14 46 21 7 6 20 9 27 6 8 -3 38 3 69 14 30 10 71 20 91 22 20 2 55 16 77 31 22 14 43 26 47 26 5 0 25 16 46 35 21 19 47 35 57 35 10 0 28 13 40 30 12 16 30 30 41 30 11 0 22 7 25 15 4 8 12 15 20 15 7 0 20 13 28 29 9 16 29 40 46 54 28 24 30 30 29 94 -1 49 -3 61 -9 43 -8 -25 -8 -25 -11 5 -1 17 -3 35 -3 40 -3 23 -46 85 -60 85 -7 0 -17 7 -20 16 -4 10 -16 14 -38 12 -28 -2 -36 -10 -55 -48 -12 -24 -32 -48 -43 -52 -18 -7 -20 -13 -15 -38 5 -23 3 -30 -8 -30 -9 0 -33 -16 -54 -36 -20 -20 -53 -42 -72 -50 -30 -13 -36 -13 -52 2 -17 16 -19 15 -29 -11 -8 -21 -14 -25 -28 -19 -9 4 -38 8 -64 9 -26 1 -51 4 -55 8 -3 4 -17 7 -30 7 -12 0 -23 5 -23 10 0 6 -6 10 -13 10 -8 0 -22 9 -32 20 -9 10 -27 18 -38 17 -12 -1 -22 3 -22 8 -1 18 -17 36 -28 32 -6 -2 -22 9 -35 25 -13 15 -26 27 -30 27 -22 -3 -42 2 -38 10 7 11 -50 61 -70 61 -8 0 -14 4 -14 9 0 9 -85 76 -127 99 -13 7 -36 25 -50 38 -39 36 -193 125 -204 118 -5 -3 -8 -1 -7 5 3 10 -166 131 -183 131 -5 0 -21 14 -36 30 -14 17 -29 30 -33 30 -7 0 -55 41 -134 112 -23 20 -39 39 -36 42 3 3 47 8 98 12 72 5 92 4 92 -6 0 -10 20 -11 92 -6 50 4 96 10 102 13 11 7 51 15 78 14 10 0 20 3 22 7 4 7 103 6 158 -1 15 -2 33 -9 42 -16 8 -6 31 -14 53 -17 49 -6 115 -25 130 -37 7 -5 19 -7 28 -4 8 4 17 2 20 -3 8 -14 142 -80 148 -73 3 2 10 -5 17 -16 6 -12 14 -19 19 -17 4 3 22 -4 40 -15 26 -15 36 -17 47 -8 11 9 14 8 14 -6 0 -9 8 -19 18 -22 14 -3 18 -13 15 -40 -2 -29 1 -34 15 -30 61 20 62 20 62 1 0 -11 7 -27 15 -37 7 -11 11 -25 9 -32 -8 -21 209 -14 260 8 25 11 36 22 33 31 -3 7 7 23 24 35 18 13 29 31 29 46 0 13 5 27 11 31 15 9 5 149 -12 171 -30 41 -74 83 -85 83 -6 0 -23 15 -37 33 -14 18 -63 58 -109 89 -94 63 -371 208 -398 208 -10 0 -23 6 -29 14 -6 7 -26 17 -44 21 -43 10 -41 9 -132 45 -44 17 -92 33 -108 36 -15 2 -38 11 -52 20 -14 9 -38 18 -54 20 -15 2 -51 15 -78 29 -28 13 -67 26 -87 27 -19 2 -38 8 -40 15 -3 6 -23 14 -46 18 -38 6 -70 18 -175 65 -16 8 -33 14 -37 14 -3 1 -10 4 -14 9 -4 4 -19 7 -32 7 -14 0 -48 11 -76 24 -28 13 -76 26 -106 29 -30 2 -72 12 -92 21 -21 9 -41 15 -45 14 -5 0 -20 4 -36 10 -15 6 -53 16 -85 21 -31 5 -77 20 -102 32 -25 12 -63 23 -85 24 -22 0 -57 8 -79 18 -21 9 -42 15 -46 12 -5 -3 -12 -1 -15 5 -4 6 -21 8 -40 4 -21 -4 -45 0 -68 11 -24 11 -68 17 -143 19 -60 2 -116 6 -125 10 -9 4 -20 6 -25 4 -5 -2 -25 7 -45 19 -20 13 -49 25 -65 27 -16 2 -42 8 -57 15 -16 6 -34 11 -42 11 -8 0 -17 4 -20 10 -3 6 -21 10 -39 10 -17 0 -37 5 -44 12 -8 8 -50 13 -115 14 -263 6 -427 14 -476 23 -29 6 -78 11 -108 11 -29 0 -61 4 -71 9 -9 5 -48 14 -87 21 -38 6 -80 16 -92 22 -17 8 -30 8 -48 0 -14 -6 -25 -7 -25 -2 0 4 -15 8 -32 8 -52 -1 -162 20 -166 32 -2 5 -17 10 -33 10 -16 0 -37 4 -47 9 -22 12 -105 33 -113 29 -3 -2 -12 2 -20 8 -8 6 -38 12 -67 13 -30 1 -66 7 -80 13 -32 14 -45 16 -137 24 -38 4 -73 11 -76 16 -4 6 -21 12 -38 14 -17 2 -54 14 -82 26 -38 16 -56 19 -68 11 -26 -16 -117 -15 -130 1 -7 8 -19 12 -27 9 -8 -3 -20 -1 -27 4 -6 6 -37 11 -67 12 -30 1 -59 6 -64 12 -16 15 -76 11 -83 -7 -5 -13 -9 -12 -30 7 -23 22 -25 22 -52 6 -34 -20 -82 -22 -99 -5 -9 9 -18 9 -37 0 -20 -9 -31 -9 -48 0 -33 19 -1143 19 -1208 0 -25 -8 -84 -15 -130 -17 -46 -1 -86 -3 -89 -4 -3 0 -63 -4 -135 -7 -153 -7 -195 -10 -255 -18 -25 -3 -68 -7 -96 -9 -28 -2 -55 -7 -60 -10 -6 -3 -16 -2 -24 3 -8 5 -25 3 -41 -6 -19 -9 -63 -14 -130 -15 -56 0 -113 -5 -125 -10 -13 -4 -41 -9 -61 -11 -21 -1 -41 -6 -45 -12 -4 -6 -16 -3 -32 7 -31 21 -50 21 -68 3 -9 -8 -46 -16 -94 -20 -111 -8 -256 -29 -273 -40 -16 -10 -67 -22 -148 -36 -28 -4 -57 -12 -64 -16 -7 -4 -27 -9 -43 -11 -142 -14 -171 -14 -209 -4 -23 7 -62 13 -87 15 -25 2 -65 10 -90 18 -25 8 -69 15 -97 17 -29 1 -65 8 -80 16 -16 8 -36 12 -46 9 -10 -3 -28 1 -41 9 -20 13 -27 14 -49 2 -19 -9 -48 -12 -104 -8 -146 11 -571 4 -579 -9 -3 -4 -16 -5 -30 -2 -13 3 -30 2 -37 -4 -6 -6 -23 -12 -36 -14 -30 -4 -39 -26 -14 -34 27 -9 81 -33 146 -66 32 -16 62 -26 66 -23 5 2 16 -6 24 -19 17 -26 7 -46 -24 -46 -9 0 -22 -7 -30 -16 -9 -11 -22 -14 -45 -9 -18 3 -35 1 -39 -4 -3 -6 -12 -8 -20 -5 -8 3 -36 -4 -61 -17 -45 -21 -62 -25 -147 -32 -21 -2 -43 -9 -49 -15 -7 -7 -21 -12 -31 -12 -11 0 -45 -14 -77 -31 -32 -17 -63 -28 -69 -25 -6 4 -21 0 -34 -9 -52 -33 -167 -22 -260 26 -10 5 -22 7 -27 4 -5 -3 -24 8 -42 23 -18 16 -53 39 -78 52 -25 12 -57 33 -72 47 -14 14 -31 22 -37 19 -5 -4 -15 3 -21 14 -6 11 -19 20 -30 20 -11 0 -42 21 -71 46 -28 25 -54 43 -57 40 -3 -3 -11 3 -19 14 -8 11 -23 20 -34 20 -10 0 -19 4 -19 9 0 5 -12 11 -27 13 -23 2 -27 7 -25 26 2 14 -3 24 -15 29 -10 4 -32 17 -49 30 -17 13 -36 23 -41 23 -6 0 -16 7 -23 16 -8 8 -28 21 -46 29 -18 7 -40 25 -49 39 -23 35 -120 97 -158 102 -18 1 -63 14 -101 28 -54 19 -63 25 -45 29 13 2 -34 4 -106 4 -88 0 -111 -2 -70 -6z"/>
 <path d="M82 4878 c5 -15 28 -23 28 -10 0 5 -7 13 -16 16 -10 4 -14 1 -12 -6z"/>
 </g>
<g id="layer104" fill="#2d2d2e" stroke="none">
 <path d="M3623 4983 c9 -2 23 -2 30 0 6 3 -1 5 -18 5 -16 0 -22 -2 -12 -5z"/>
 <path d="M3700 4952 c-13 -15 -23 -31 -22 -35 1 -5 -2 -6 -7 -3 -16 10 -51 -45 -51 -80 0 -27 -4 -34 -19 -34 -22 0 -33 -21 -21 -40 5 -7 -2 -26 -16 -48 -13 -19 -24 -47 -24 -63 0 -15 -4 -31 -10 -34 -5 -3 -10 -20 -10 -38 0 -20 -9 -41 -26 -58 -17 -18 -30 -47 -37 -85 -11 -53 -15 -59 -41 -64 -22 -4 -32 -14 -44 -45 -9 -22 -23 -46 -33 -52 -9 -7 -20 -29 -24 -50 -10 -58 -46 -151 -60 -156 -13 -6 -55 -80 -55 -99 0 -6 -8 -20 -17 -30 -14 -16 -15 -23 -5 -39 15 -24 8 -39 -19 -39 -18 0 -79 -71 -79 -92 0 -6 -8 -26 -17 -45 -13 -28 -14 -39 -5 -54 15 -23 15 -32 1 -24 -14 9 -49 -23 -49 -45 0 -9 -8 -24 -18 -34 -11 -9 -24 -34 -31 -55 -6 -21 -17 -43 -24 -49 -6 -5 -59 -13 -117 -16 -128 -7 -191 -13 -295 -26 -44 -6 -93 -12 -110 -14 -16 -2 -37 -7 -46 -11 -10 -3 -20 -2 -24 4 -3 6 -28 11 -54 11 -26 0 -52 5 -57 10 -6 6 -20 12 -32 15 -37 7 -156 61 -207 95 -16 11 -43 26 -60 33 -16 8 -55 35 -85 61 -30 26 -68 55 -85 63 -16 9 -48 30 -70 48 -22 18 -53 39 -70 48 -16 9 -58 43 -93 77 -34 33 -68 60 -74 60 -6 0 -9 3 -5 6 3 3 -18 27 -46 52 -29 25 -58 52 -65 59 -7 7 -18 13 -24 13 -6 0 -50 41 -99 90 -48 50 -90 90 -93 90 -5 0 -98 84 -168 153 -26 26 -51 47 -56 47 -4 0 -18 16 -32 35 -14 19 -30 35 -36 35 -7 0 -14 7 -18 15 -3 8 -10 15 -17 15 -6 0 -30 16 -53 35 -24 19 -48 35 -54 35 -5 0 -29 16 -52 35 -23 19 -50 35 -60 35 -10 0 -28 11 -41 25 -13 13 -29 25 -36 25 -7 0 -46 18 -88 40 -42 22 -82 40 -89 40 -6 0 -27 11 -45 24 -19 14 -47 28 -64 32 -17 3 -40 12 -50 18 -14 9 -21 7 -31 -6 -7 -10 -25 -18 -38 -18 -32 0 -48 -18 -47 -56 0 -16 -2 -40 -6 -55 -5 -21 -2 -27 20 -37 15 -7 43 -24 62 -39 19 -15 54 -36 77 -47 41 -20 116 -93 82 -80 -10 4 -18 0 -22 -10 -8 -20 -37 -21 -67 -2 -60 38 -85 27 -48 -21 11 -13 17 -31 15 -38 -3 -8 -3 -19 1 -25 10 -16 17 -97 18 -221 1 -69 6 -111 15 -121 14 -18 7 -44 -14 -52 -26 -10 -34 -50 -19 -105 11 -43 11 -52 -1 -62 -11 -9 -13 -24 -8 -58 4 -25 9 -50 12 -56 3 -5 5 -24 3 -41 -1 -18 2 -35 7 -38 6 -3 9 -38 7 -76 -1 -39 1 -73 5 -75 7 -4 -5 -94 -14 -103 -3 -2 2 -22 10 -44 8 -23 12 -60 9 -89 -3 -27 -1 -49 4 -49 11 0 7 -81 -6 -105 -16 -34 -8 -283 12 -335 9 -25 18 -54 19 -65 1 -11 7 -31 13 -45 19 -47 24 -68 15 -74 -5 -3 -9 -19 -10 -36 -1 -30 7 -35 50 -32 14 1 17 -5 15 -33 -2 -29 -7 -35 -29 -41 -40 -8 -41 -17 -12 -71 40 -75 45 -99 26 -132 -14 -24 -14 -33 -4 -53 18 -33 21 -96 5 -109 -15 -13 -18 -85 -3 -94 14 -8 13 -88 -1 -102 -8 -8 -5 -24 13 -60 23 -45 35 -83 55 -163 7 -31 3 -117 -10 -175 -3 -11 2 -35 9 -54 17 -41 18 -116 3 -160 -8 -24 -9 -39 -1 -56 6 -14 7 -27 3 -29 -16 -11 -19 -60 -4 -82 11 -18 12 -27 3 -44 -8 -15 -8 -30 -2 -49 5 -15 8 -40 5 -54 -3 -15 -1 -33 5 -40 24 -30 24 -75 -1 -112 -23 -34 -24 -38 -10 -66 14 -29 14 -54 -1 -90 -4 -9 1 -24 13 -37 20 -24 18 -54 -5 -73 -8 -6 -14 -24 -14 -40 0 -16 -7 -49 -16 -75 -8 -25 -13 -53 -9 -61 3 -9 -2 -24 -10 -34 -22 -23 -16 -83 7 -87 10 -2 28 7 41 20 13 13 34 28 48 34 13 6 49 23 80 37 31 15 61 27 67 27 6 0 17 9 25 21 8 11 33 32 55 47 59 40 162 124 162 132 0 4 9 10 20 13 14 3 20 14 20 31 0 16 6 26 14 26 28 0 176 160 176 190 0 7 6 10 14 7 15 -6 46 22 46 40 0 6 11 18 25 27 14 9 25 23 25 32 0 8 14 29 30 47 46 48 90 108 90 122 0 7 11 20 24 28 13 9 34 39 47 67 12 27 33 57 46 65 13 9 23 19 23 24 0 5 16 37 35 71 19 34 35 68 35 76 0 8 7 17 15 20 16 6 75 88 75 104 0 5 26 35 58 67 31 33 79 85 106 117 26 31 66 69 87 83 22 14 39 33 39 42 0 10 18 27 40 40 22 12 46 31 54 43 17 24 64 50 77 43 4 -3 26 3 48 15 22 11 50 20 63 20 13 0 54 0 91 -1 38 0 75 5 82 11 8 7 19 9 25 5 6 -3 25 -2 43 4 44 13 138 20 292 22 123 1 130 0 148 -22 10 -13 15 -29 11 -38 -30 -73 -39 -170 -23 -254 15 -80 36 -103 125 -136 53 -20 154 -27 179 -12 15 8 35 12 81 15 22 2 47 7 55 11 7 5 34 10 58 12 24 1 68 14 96 28 41 20 67 25 123 25 39 0 73 4 76 9 11 17 451 13 556 -5 52 -9 129 -18 170 -21 41 -3 80 -9 87 -14 6 -6 22 -11 35 -13 13 -1 30 -5 38 -9 8 -3 40 -8 70 -11 129 -12 167 -17 195 -31 27 -12 94 -26 210 -42 22 -3 46 -10 53 -16 8 -6 39 -13 70 -14 140 -9 160 -12 193 -29 23 -12 60 -18 114 -20 44 -1 80 -3 80 -4 0 -1 14 -4 30 -6 17 -3 41 -6 55 -8 14 -2 32 -6 40 -9 14 -5 44 -11 125 -24 17 -2 79 -6 139 -9 83 -3 113 -8 127 -20 10 -9 16 -21 13 -26 -7 -10 44 -88 57 -88 5 0 6 -6 3 -13 -2 -7 5 -24 17 -38 11 -13 27 -40 35 -59 8 -19 35 -56 61 -82 29 -30 43 -51 37 -59 -4 -7 -6 -35 -5 -63 2 -36 8 -55 24 -70 25 -24 52 -75 48 -94 -1 -6 9 -17 22 -23 17 -8 23 -17 20 -30 -3 -10 0 -19 6 -19 6 0 10 -4 8 -9 -1 -5 15 -24 36 -43 31 -27 39 -41 42 -77 3 -24 15 -61 29 -81 14 -22 21 -42 16 -50 -9 -14 13 -104 30 -125 6 -8 9 -22 6 -32 -3 -10 1 -31 9 -47 17 -32 18 -36 8 -35 -35 6 -48 -25 -24 -54 13 -15 13 -22 2 -39 -7 -11 -14 -38 -17 -60 -2 -22 -11 -46 -20 -52 -9 -7 -15 -21 -13 -32 6 -28 74 -32 103 -7 28 25 74 45 111 49 34 3 155 62 155 74 0 5 8 6 19 3 11 -3 31 7 53 25 19 17 46 34 61 37 15 4 33 15 40 24 6 10 44 34 82 55 39 21 75 43 80 50 6 7 30 22 55 35 68 35 88 46 107 63 10 8 25 18 33 22 44 19 111 67 240 171 30 24 60 44 65 45 6 0 53 44 105 98 92 95 195 187 228 206 9 5 41 33 71 63 30 29 60 53 67 53 7 0 19 8 26 18 7 9 20 18 28 20 8 2 27 9 42 16 14 8 38 11 52 9 14 -3 34 -2 43 2 10 4 27 9 38 11 33 6 566 4 576 -2 8 -4 375 -9 440 -5 9 1 34 13 55 28 34 23 51 27 129 30 217 7 311 14 330 23 21 10 127 20 257 23 42 2 80 6 83 9 4 4 13 4 20 2 7 -3 16 -1 20 5 4 7 50 11 120 11 63 0 116 4 119 9 3 5 33 7 66 4 38 -4 65 -2 74 6 7 6 21 9 30 5 9 -3 22 -1 30 5 7 6 21 8 30 5 10 -4 25 1 35 10 14 13 39 16 117 16 117 -1 182 3 207 14 10 5 30 6 46 3 16 -3 32 -3 35 0 7 7 17 9 94 19 29 4 55 10 57 14 3 5 56 6 119 3 63 -3 122 -2 133 2 10 5 24 7 32 6 7 -1 25 2 40 7 56 21 68 24 111 26 83 5 165 18 190 31 14 7 63 15 109 19 108 8 160 17 167 27 3 5 24 9 46 9 39 0 72 7 163 33 22 7 45 11 52 9 6 -1 14 2 18 8 3 5 16 10 28 10 12 0 30 7 40 15 11 7 25 11 33 8 8 -3 21 0 29 7 9 7 32 16 53 21 20 4 55 13 77 19 22 6 58 15 80 19 39 8 59 14 100 31 43 18 60 24 70 25 6 1 19 5 30 9 11 5 27 10 35 14 8 3 21 4 27 3 7 -1 23 4 35 11 13 7 27 11 32 10 5 -2 37 6 72 18 35 11 77 20 93 20 16 0 32 4 35 9 6 9 58 19 136 25 25 2 68 13 95 25 29 13 61 20 76 17 14 -3 35 1 45 8 22 15 75 27 121 26 17 0 34 4 38 10 3 6 11 8 16 4 5 -3 16 0 24 6 8 7 24 10 35 7 11 -3 39 1 62 8 32 9 47 9 60 1 13 -8 23 -8 38 1 10 7 32 10 47 7 15 -3 42 0 58 7 17 7 38 11 49 10 10 -2 38 8 62 21 39 20 46 21 54 8 8 -13 15 -13 61 3 28 10 81 21 118 23 36 2 84 11 106 18 22 8 78 17 125 20 104 6 172 16 185 27 6 4 35 7 65 6 75 -2 240 12 280 23 17 5 38 14 46 21 7 6 20 9 27 6 8 -3 38 3 69 14 30 10 71 20 91 22 20 2 55 16 77 31 22 14 43 26 47 26 5 0 25 16 46 35 21 19 47 35 57 35 10 0 28 13 40 30 12 16 30 30 41 30 11 0 22 7 25 15 4 8 12 15 20 15 7 0 20 13 28 29 9 16 29 40 46 54 25 22 30 33 30 71 0 24 -4 46 -10 48 -5 2 -11 19 -13 39 -4 43 -41 109 -61 109 -7 0 -17 7 -20 16 -4 10 -16 14 -38 12 -28 -2 -36 -10 -55 -48 -12 -24 -32 -48 -43 -52 -18 -7 -20 -13 -15 -38 5 -23 3 -30 -8 -30 -9 0 -33 -16 -54 -36 -20 -20 -53 -42 -72 -50 -30 -13 -36 -13 -52 2 -17 16 -19 15 -29 -11 -8 -21 -14 -25 -28 -19 -9 4 -38 8 -64 9 -26 1 -51 4 -55 8 -3 4 -17 7 -30 7 -12 0 -23 5 -23 10 0 6 -6 10 -13 10 -8 0 -22 9 -32 20 -9 10 -27 18 -38 17 -12 -1 -22 3 -22 8 -1 18 -17 36 -28 32 -6 -2 -22 9 -35 25 -13 15 -26 27 -30 27 -22 -3 -42 2 -38 10 7 11 -50 61 -70 61 -8 0 -14 4 -14 9 0 9 -85 76 -127 99 -13 7 -36 25 -50 38 -39 36 -193 125 -204 118 -5 -3 -8 -1 -7 5 3 10 -166 131 -183 131 -5 0 -21 14 -36 30 -14 17 -29 30 -33 30 -7 0 -55 41 -134 112 -23 20 -39 39 -36 42 3 3 47 8 98 12 72 5 92 4 92 -6 0 -10 20 -11 92 -6 50 4 96 10 102 13 11 7 51 15 78 14 10 0 20 3 22 7 4 7 103 6 158 -1 15 -2 33 -9 42 -16 8 -6 31 -14 53 -17 49 -6 115 -25 130 -37 7 -5 19 -7 28 -4 8 4 17 2 20 -3 8 -14 142 -80 148 -73 3 2 10 -5 17 -16 6 -12 14 -19 19 -17 4 3 22 -4 40 -15 26 -15 36 -17 47 -8 11 9 14 8 14 -6 0 -9 8 -19 18 -22 14 -3 18 -13 15 -40 -2 -31 0 -34 17 -29 11 3 29 9 40 12 15 5 20 2 20 -12 0 -11 7 -27 15 -37 7 -11 11 -25 9 -32 -8 -21 209 -14 260 8 25 11 36 22 33 31 -3 7 7 23 24 35 18 13 29 31 29 46 0 13 5 27 11 31 15 9 5 149 -12 171 -30 41 -74 83 -85 83 -6 0 -23 15 -37 33 -14 18 -63 58 -109 89 -94 63 -371 208 -398 208 -10 0 -23 6 -29 14 -6 7 -26 17 -44 21 -43 10 -41 9 -132 45 -44 17 -92 33 -108 36 -15 2 -38 11 -52 20 -14 9 -38 18 -54 20 -15 2 -51 15 -78 29 -28 13 -67 26 -87 27 -19 2 -38 8 -40 15 -3 6 -23 14 -46 18 -38 6 -70 18 -175 65 -16 8 -33 14 -37 14 -3 1 -10 4 -14 9 -4 4 -19 7 -32 7 -14 0 -48 11 -76 24 -28 13 -76 26 -106 29 -30 2 -72 12 -92 21 -21 9 -41 15 -45 14 -5 0 -20 4 -36 10 -15 6 -53 16 -85 21 -31 5 -77 20 -102 32 -25 12 -63 23 -85 24 -22 0 -57 8 -79 18 -21 9 -42 15 -46 12 -5 -3 -12 -1 -15 5 -4 6 -21 8 -40 4 -21 -4 -45 0 -68 11 -24 11 -68 17 -143 19 -60 2 -116 6 -125 10 -9 4 -20 6 -25 4 -5 -2 -25 7 -45 19 -20 13 -49 25 -65 27 -16 2 -42 8 -57 15 -16 6 -34 11 -42 11 -8 0 -17 4 -20 10 -3 6 -21 10 -39 10 -17 0 -37 5 -44 12 -8 8 -50 13 -115 14 -263 6 -427 14 -476 23 -29 6 -78 11 -108 11 -29 0 -61 4 -71 9 -9 5 -48 14 -87 21 -38 6 -80 16 -92 22 -17 8 -30 8 -48 0 -14 -6 -25 -7 -25 -2 0 4 -15 8 -32 8 -52 -1 -162 20 -166 32 -2 5 -17 10 -33 10 -16 0 -37 4 -47 9 -17 10 -113 36 -122 34 -3 -1 -9 2 -15 6 -5 5 -34 9 -63 10 -30 1 -66 7 -80 13 -32 14 -45 16 -137 24 -38 4 -73 11 -76 16 -4 6 -21 12 -38 14 -17 2 -54 14 -82 26 -38 16 -56 19 -68 11 -22 -13 -118 -16 -126 -3 -3 5 -17 10 -30 10 -13 0 -26 4 -29 8 -3 5 -31 10 -63 11 -32 1 -62 6 -67 11 -16 16 -76 12 -83 -6 -5 -13 -9 -12 -30 7 -23 22 -25 22 -52 6 -34 -20 -82 -22 -99 -5 -9 9 -18 9 -37 0 -20 -9 -31 -9 -48 0 -33 19 -1143 19 -1208 0 -25 -8 -84 -15 -130 -17 -46 -1 -86 -3 -89 -4 -3 0 -63 -4 -135 -7 -211 -10 -221 -10 -231 -17 -5 -3 -43 -7 -84 -8 -41 -1 -82 -6 -91 -10 -8 -4 -21 -4 -29 1 -8 5 -25 3 -41 -6 -19 -9 -63 -14 -130 -15 -56 0 -113 -5 -125 -10 -13 -4 -41 -9 -61 -11 -21 -1 -41 -6 -45 -12 -4 -6 -16 -3 -32 7 -31 21 -50 21 -68 3 -9 -8 -46 -16 -94 -20 -111 -8 -256 -29 -273 -40 -16 -10 -67 -22 -148 -36 -28 -4 -57 -12 -64 -16 -7 -4 -27 -9 -43 -11 -142 -14 -171 -14 -209 -4 -23 7 -62 13 -87 15 -25 2 -65 10 -90 18 -25 8 -69 15 -97 17 -29 1 -65 8 -80 16 -16 8 -36 12 -46 9 -10 -3 -28 1 -41 9 -20 13 -27 14 -49 2 -19 -9 -48 -12 -104 -8 -146 11 -571 4 -579 -9 -3 -4 -16 -5 -30 -2 -13 3 -30 2 -37 -4 -6 -6 -23 -12 -36 -14 -30 -4 -39 -26 -14 -34 27 -9 81 -33 146 -66 32 -16 62 -26 66 -23 5 2 16 -6 24 -19 17 -26 7 -46 -24 -46 -9 0 -22 -7 -30 -16 -9 -11 -22 -14 -45 -9 -18 3 -35 1 -39 -4 -3 -6 -12 -8 -20 -5 -8 3 -36 -4 -61 -17 -45 -21 -62 -25 -147 -32 -21 -2 -43 -9 -49 -15 -7 -7 -21 -12 -31 -12 -11 0 -45 -14 -77 -31 -32 -17 -63 -28 -69 -25 -6 4 -21 0 -34 -9 -52 -33 -167 -22 -260 26 -10 5 -22 7 -27 4 -5 -3 -24 8 -42 23 -18 16 -53 39 -78 52 -25 12 -57 33 -72 47 -14 14 -31 22 -37 19 -5 -4 -15 3 -21 14 -6 11 -19 20 -30 20 -11 0 -42 21 -71 46 -28 25 -54 43 -57 40 -3 -3 -11 3 -19 14 -8 11 -23 20 -34 20 -10 0 -19 4 -19 9 0 5 -12 11 -27 13 -23 2 -27 7 -25 26 2 14 -3 24 -15 29 -10 4 -32 17 -49 30 -17 13 -36 23 -41 23 -6 0 -16 7 -23 16 -8 8 -28 21 -46 29 -18 7 -40 25 -49 39 -23 35 -120 97 -158 102 -18 1 -63 14 -102 28 -95 35 -152 34 -185 -2z"/>
 <path d="M82 4878 c5 -15 28 -23 28 -10 0 5 -7 13 -16 16 -10 4 -14 1 -12 -6z"/>
 <path d="M6663 3 c9 -2 25 -2 35 0 9 3 1 5 -18 5 -19 0 -27 -2 -17 -5z"/>
 </g>
<g id="layer105" fill="#d3d4d4" stroke="none">
 <path d="M3730 4967 c0 -6 -20 -28 -44 -47 -45 -35 -66 -67 -66 -98 0 -9 -9 -23 -20 -30 -16 -10 -18 -17 -11 -31 8 -13 4 -26 -15 -53 -24 -34 -35 -64 -53 -149 -4 -19 -18 -49 -30 -66 -13 -17 -20 -36 -17 -42 12 -18 -27 -72 -61 -86 -22 -9 -35 -23 -39 -42 -4 -15 -18 -43 -32 -60 -24 -32 -39 -77 -49 -143 -3 -19 -18 -48 -33 -65 -37 -38 -81 -135 -74 -158 4 -13 -8 -30 -40 -58 -25 -23 -46 -45 -46 -50 0 -6 -9 -30 -20 -54 -13 -29 -18 -54 -14 -71 5 -20 2 -26 -15 -31 -19 -5 -81 -109 -81 -137 -1 -33 -21 -41 -122 -48 -160 -10 -316 -26 -398 -39 -41 -7 -82 -11 -90 -11 -70 6 -131 16 -136 23 -3 5 -15 9 -28 9 -12 0 -26 4 -31 9 -6 5 -48 25 -95 46 -47 21 -103 51 -124 66 -22 16 -44 29 -50 29 -5 0 -30 17 -56 39 -44 37 -124 93 -197 137 -34 21 -202 171 -414 369 -59 55 -162 150 -229 210 -68 61 -134 123 -149 138 -35 38 -146 127 -159 127 -6 0 -29 16 -52 35 -23 19 -49 35 -57 35 -8 0 -27 8 -41 18 -41 29 -160 92 -172 92 -6 0 -49 18 -96 40 -90 42 -128 49 -138 25 -3 -9 -18 -15 -36 -15 -17 0 -32 -6 -34 -12 -2 -7 -8 -28 -14 -47 -13 -40 -3 -66 30 -76 13 -4 32 -15 43 -25 11 -9 40 -27 65 -39 41 -21 110 -77 110 -90 0 -10 -53 -31 -77 -31 -13 0 -32 5 -43 12 -26 17 -36 3 -20 -29 14 -31 31 -145 32 -210 0 -24 0 -51 0 -60 0 -10 -1 -40 -1 -67 -1 -27 4 -55 10 -62 8 -10 6 -22 -10 -49 -15 -26 -21 -52 -20 -98 0 -34 -1 -80 -1 -102 -2 -57 15 -164 31 -202 11 -27 11 -39 0 -69 -9 -26 -10 -39 -2 -47 16 -16 14 -44 -5 -73 -15 -23 -15 -28 5 -75 14 -34 18 -56 12 -67 -5 -10 -5 -42 0 -75 8 -52 7 -64 -12 -103 -21 -41 -21 -45 -6 -62 21 -23 21 -60 2 -86 -19 -25 -19 -40 -1 -79 8 -18 17 -50 20 -72 9 -71 22 -129 35 -153 6 -12 11 -44 9 -70 l-3 -47 45 -5 c33 -4 40 -7 26 -13 -14 -6 -17 -14 -12 -37 5 -28 3 -30 -25 -30 -45 0 -46 -24 -4 -86 l38 -55 -18 -39 c-16 -36 -17 -44 -3 -100 11 -47 12 -64 3 -77 -14 -19 -11 -238 3 -256 16 -19 42 -99 42 -128 0 -15 7 -46 15 -70 14 -40 14 -48 -1 -87 -11 -29 -14 -53 -8 -75 11 -49 13 -279 1 -310 -6 -19 -6 -31 2 -41 7 -8 13 -55 14 -109 1 -53 5 -99 10 -103 12 -12 8 -73 -6 -102 -17 -33 -15 -178 1 -194 17 -17 15 -38 -5 -60 -15 -17 -22 -44 -39 -158 -3 -19 -12 -50 -20 -68 -16 -35 -11 -72 11 -72 7 0 26 10 42 23 46 37 77 54 124 68 51 15 128 67 239 162 43 37 84 67 89 67 6 0 11 8 11 19 0 18 80 106 116 127 11 6 33 34 49 62 17 30 39 55 52 58 13 3 49 40 80 81 57 75 69 91 108 150 11 16 33 45 48 64 39 47 106 152 142 222 17 32 49 81 73 109 24 28 51 67 62 87 10 20 42 64 71 97 30 34 71 82 93 108 21 26 56 57 77 69 21 12 43 33 49 47 6 14 26 34 45 44 19 11 35 22 35 26 0 7 44 30 125 66 25 11 72 19 125 21 93 3 216 18 295 34 126 28 297 22 337 -11 21 -17 22 -21 10 -61 -30 -107 -36 -157 -23 -216 22 -99 34 -112 153 -163 26 -11 56 -20 68 -20 20 0 147 28 231 50 20 6 48 10 63 10 15 0 41 7 59 16 17 9 74 21 127 27 136 15 609 14 695 -1 39 -7 106 -16 151 -21 44 -4 96 -15 114 -24 19 -10 57 -17 91 -17 32 0 78 -4 101 -10 24 -5 68 -14 98 -19 30 -5 82 -17 115 -26 87 -24 212 -45 272 -45 28 0 80 -9 115 -20 34 -11 86 -20 113 -20 28 -1 70 -5 95 -11 25 -5 81 -14 125 -19 44 -6 89 -16 100 -22 11 -7 79 -15 158 -18 143 -5 156 -10 157 -51 0 -9 7 -22 15 -29 9 -7 25 -33 35 -56 11 -24 25 -46 31 -49 5 -4 22 -31 36 -61 14 -30 41 -68 60 -83 30 -25 34 -33 28 -59 -3 -17 -2 -39 3 -49 7 -12 7 -25 1 -35 -7 -13 0 -27 30 -62 22 -25 42 -59 46 -76 4 -17 13 -34 21 -37 7 -2 16 -15 20 -26 3 -12 26 -46 50 -76 34 -40 42 -59 38 -77 -4 -15 2 -34 17 -55 12 -18 23 -48 25 -68 2 -33 21 -118 46 -200 9 -30 8 -36 -13 -52 -21 -16 -22 -19 -9 -43 10 -20 11 -31 2 -51 -7 -14 -12 -41 -12 -60 0 -24 -6 -37 -20 -45 -16 -9 -18 -15 -10 -30 15 -28 44 -25 96 11 26 17 65 34 94 38 28 4 58 15 68 25 10 9 25 16 33 17 8 0 40 15 71 32 31 18 79 44 105 58 26 15 69 40 94 55 26 16 91 56 145 88 55 32 130 79 167 103 37 24 76 47 85 51 24 10 64 38 127 92 29 25 75 61 102 80 26 19 97 84 157 143 183 183 368 333 418 341 117 19 282 22 773 11 l330 -8 65 25 c93 37 98 38 285 44 94 3 177 8 185 11 8 3 58 10 110 15 52 4 133 13 180 18 47 6 141 14 210 20 201 15 323 28 370 41 25 6 79 13 120 15 195 9 355 30 415 54 11 5 94 11 185 13 114 4 178 10 209 21 24 9 70 16 102 16 32 0 76 6 96 14 21 8 83 19 137 25 55 7 104 15 110 20 6 5 54 12 106 16 52 4 109 13 125 20 17 7 61 18 100 24 38 7 74 16 80 20 9 8 81 29 175 51 19 5 52 13 73 19 20 6 52 15 70 20 17 5 52 16 77 25 168 63 277 95 395 116 28 5 73 14 100 19 28 6 66 13 85 16 19 4 42 9 50 12 8 4 19 5 24 4 6 -1 28 4 50 12 23 8 68 20 101 27 33 6 76 15 95 20 107 27 193 40 284 45 89 4 145 13 241 40 28 8 79 17 115 21 36 3 83 12 105 19 22 8 51 14 65 14 70 -1 264 22 276 32 8 6 83 15 176 20 157 8 230 19 348 54 30 9 79 20 109 25 65 11 122 38 186 91 26 21 53 39 61 39 7 0 28 12 46 28 48 40 96 72 107 72 5 0 12 9 16 19 3 11 21 33 40 50 30 26 35 37 35 76 0 25 -4 45 -9 45 -5 0 -11 18 -15 40 -7 45 -64 116 -106 132 -21 8 -28 5 -47 -19 -13 -15 -23 -33 -23 -39 0 -6 -11 -20 -25 -32 -19 -17 -24 -28 -19 -47 5 -20 2 -25 -13 -25 -11 0 -32 -14 -49 -31 -31 -34 -102 -69 -138 -69 -12 0 -26 -4 -32 -10 -6 -6 -23 -5 -48 2 -29 9 -42 9 -56 0 -23 -14 -59 -3 -105 32 -16 13 -41 27 -55 31 -14 4 -50 28 -80 53 -30 24 -61 47 -68 50 -7 2 -26 16 -42 31 -60 54 -108 91 -117 91 -6 0 -17 8 -24 17 -14 17 -198 140 -276 184 -54 31 -174 112 -238 162 -27 21 -75 57 -105 80 -82 61 -110 89 -110 109 0 10 1 18 3 18 1 1 99 5 217 10 118 5 228 13 243 19 42 16 167 14 201 -4 15 -8 45 -15 65 -15 20 0 45 -7 55 -15 11 -8 30 -15 42 -15 13 0 25 -4 29 -9 3 -6 13 -9 23 -9 16 1 62 -19 141 -61 19 -10 43 -16 53 -13 12 3 18 -1 18 -12 0 -27 45 -49 85 -42 27 5 35 4 35 -8 0 -8 8 -22 18 -32 9 -10 17 -29 17 -43 0 -18 5 -25 15 -22 41 11 53 5 65 -29 11 -32 17 -36 74 -49 51 -12 73 -13 119 -3 31 7 58 16 60 22 2 5 9 10 16 10 17 0 86 96 86 119 0 11 5 23 10 26 19 12 8 85 -24 154 -27 58 -243 218 -406 301 -47 23 -97 51 -112 61 -14 11 -29 19 -33 19 -4 0 -23 7 -43 16 -54 23 -68 29 -162 59 -47 16 -101 36 -120 45 -19 9 -73 29 -120 44 -47 16 -104 37 -128 47 -23 10 -49 19 -57 19 -9 0 -55 16 -103 36 -48 19 -104 40 -125 45 -21 5 -60 20 -86 33 -26 14 -65 28 -87 32 -21 3 -55 14 -74 24 -19 9 -66 20 -104 23 -37 4 -73 10 -80 15 -6 5 -38 17 -71 26 -33 9 -101 30 -151 46 -51 17 -105 30 -120 30 -16 0 -49 8 -74 17 -54 19 -120 30 -260 42 -151 13 -201 21 -234 38 -15 8 -54 21 -85 29 -31 8 -66 19 -78 24 -54 24 -71 29 -128 39 -33 5 -172 15 -310 21 -137 6 -263 15 -279 21 -16 5 -57 9 -92 9 -35 0 -73 4 -86 9 -43 16 -123 31 -194 35 -122 8 -212 26 -338 68 -98 33 -97 33 -206 47 -41 5 -95 17 -119 25 -24 9 -64 16 -89 16 -24 0 -77 12 -116 26 -56 21 -92 27 -166 28 -53 1 -119 10 -150 19 -46 14 -165 23 -220 18 -8 -1 -154 1 -325 4 -487 8 -1066 5 -1152 -6 -78 -11 -101 -12 -138 -10 -73 5 -585 -32 -604 -43 -11 -7 -57 -11 -241 -21 -47 -2 -110 -10 -140 -16 -30 -6 -63 -10 -72 -10 -83 7 -399 -31 -473 -57 -66 -23 -103 -32 -127 -32 -14 0 -43 -8 -64 -17 -53 -24 -307 -24 -374 0 -42 15 -119 30 -200 41 -19 2 -55 9 -80 15 -25 6 -83 8 -132 4 -55 -4 -103 -1 -130 6 -33 9 -99 9 -278 1 -129 -6 -246 -11 -260 -11 -14 0 -34 -4 -45 -8 -11 -5 -28 -12 -39 -15 -24 -8 -6 -32 32 -40 15 -4 66 -26 114 -49 63 -30 90 -48 94 -64 3 -13 10 -23 15 -23 5 0 9 -4 9 -9 0 -5 -19 -11 -42 -14 -59 -8 -110 -17 -128 -24 -8 -4 -21 -5 -28 -4 -6 1 -27 -5 -45 -12 -55 -25 -70 -29 -127 -33 -30 -3 -59 -9 -64 -14 -6 -6 -19 -10 -29 -10 -10 0 -31 -7 -45 -14 -71 -39 -205 -77 -272 -78 -23 0 -90 19 -124 35 -17 8 -42 20 -56 26 -48 21 -153 82 -180 104 -15 12 -46 33 -69 47 -41 25 -53 32 -159 106 -29 20 -70 43 -90 50 -28 9 -36 17 -34 32 2 15 -20 34 -95 82 -54 34 -120 79 -148 101 -68 53 -112 72 -248 108 -133 35 -137 36 -137 18z"/>
 </g>
<g id="layer106" fill="#dfdfe1" stroke="none">
 <path d="M3775 4953 c-28 -4 -91 -44 -137 -86 -15 -14 -17 -22 -9 -30 16 -16 14 -50 -3 -44 -21 8 -37 -13 -26 -34 11 -19 3 -52 -10 -44 -8 5 -40 -54 -40 -75 0 -6 -5 -21 -12 -33 -7 -12 -11 -32 -9 -45 1 -14 -9 -36 -28 -58 -22 -25 -30 -41 -26 -57 9 -36 -10 -74 -41 -81 -30 -8 -53 -32 -54 -57 0 -8 -16 -34 -36 -58 -24 -28 -34 -48 -31 -62 3 -11 -2 -33 -10 -50 -8 -16 -12 -37 -9 -46 4 -9 -3 -25 -16 -38 -42 -41 -64 -72 -60 -84 2 -6 -3 -13 -11 -16 -8 -4 -14 -21 -15 -41 -2 -41 -18 -74 -36 -74 -19 0 -56 -44 -56 -67 0 -11 -6 -26 -14 -32 -10 -8 -12 -24 -9 -52 5 -35 2 -44 -20 -62 -28 -24 -77 -107 -77 -131 0 -31 -41 -46 -127 -46 -45 0 -92 -4 -106 -9 -13 -5 -61 -10 -108 -12 -46 -1 -91 -6 -99 -10 -8 -3 -46 -9 -84 -13 -38 -3 -75 -11 -82 -17 -9 -7 -19 -7 -33 1 -11 6 -40 13 -63 16 -24 4 -48 11 -55 16 -7 5 -20 8 -30 6 -21 -5 -123 41 -148 65 -9 10 -28 17 -41 17 -14 0 -35 10 -48 23 -12 12 -43 32 -69 45 -26 13 -52 32 -57 43 -6 10 -17 19 -25 19 -8 0 -20 9 -27 20 -7 11 -20 20 -29 20 -9 0 -28 11 -43 25 -15 14 -30 25 -34 25 -4 1 -22 14 -41 30 -19 16 -37 27 -41 25 -4 -3 -30 22 -58 54 -28 32 -86 87 -128 122 -43 35 -120 108 -172 162 -53 53 -101 97 -108 97 -6 0 -14 7 -18 15 -3 8 -10 15 -16 15 -5 0 -48 37 -93 83 -46 45 -112 107 -146 137 -34 30 -72 64 -84 76 -12 12 -43 30 -69 42 -25 11 -51 30 -57 41 -7 12 -18 21 -26 21 -20 0 -85 32 -85 42 0 4 -6 8 -14 8 -7 0 -24 8 -37 19 -13 10 -49 27 -79 37 -30 11 -57 22 -58 27 -2 4 -10 7 -18 7 -8 0 -45 16 -81 35 -68 36 -105 44 -100 23 1 -8 -14 -15 -38 -18 -37 -5 -40 -7 -37 -35 2 -19 -3 -34 -13 -41 -13 -10 -14 -17 -5 -33 6 -12 17 -21 25 -21 8 0 37 -13 63 -30 27 -16 54 -30 60 -30 5 0 12 -7 16 -15 3 -8 11 -15 18 -15 20 0 80 -58 76 -73 -7 -18 -69 -37 -105 -31 -38 6 -49 -7 -31 -38 7 -13 13 -43 14 -68 1 -25 4 -52 7 -60 13 -36 16 -84 6 -96 -7 -9 -7 -19 0 -31 16 -31 6 -166 -15 -198 -15 -23 -16 -33 -7 -68 7 -24 8 -46 3 -52 -17 -20 -18 -84 -2 -90 11 -4 13 -17 8 -59 -6 -41 -3 -62 8 -85 19 -36 21 -92 4 -109 -9 -9 -9 -12 0 -12 18 0 15 -80 -4 -102 -16 -17 -15 -20 11 -57 24 -36 26 -43 16 -74 -11 -33 -9 -85 3 -117 4 -9 -4 -30 -18 -48 -22 -30 -23 -36 -10 -60 18 -34 18 -86 0 -101 -14 -12 -10 -57 5 -67 5 -3 9 -25 9 -49 0 -24 4 -47 10 -50 5 -3 10 -17 10 -30 0 -13 6 -25 13 -28 9 -3 9 -7 -2 -21 -12 -14 -11 -19 4 -36 13 -14 16 -32 14 -77 l-4 -58 55 0 c42 0 55 -4 55 -15 0 -10 -10 -15 -28 -15 -25 1 -27 -2 -25 -30 3 -27 0 -30 -27 -30 -16 0 -30 -4 -29 -10 1 -24 35 -83 50 -89 13 -5 15 -14 10 -48 -4 -23 -12 -48 -18 -55 -7 -9 -7 -17 2 -28 6 -8 9 -19 6 -24 -4 -5 -2 -12 3 -15 5 -3 7 -15 4 -27 -4 -12 0 -25 8 -30 11 -8 10 -12 -6 -24 -18 -13 -20 -22 -15 -62 3 -27 3 -72 -1 -101 -3 -29 -1 -56 4 -59 4 -3 6 -11 3 -19 -3 -7 -1 -16 4 -19 5 -3 14 -22 20 -43 28 -95 43 -148 44 -162 1 -9 5 -21 9 -27 4 -6 -2 -37 -14 -68 -16 -43 -18 -59 -9 -70 7 -9 11 -45 10 -92 -4 -205 -3 -262 4 -318 20 -161 21 -218 3 -254 -14 -29 -10 -124 9 -204 5 -21 1 -36 -14 -56 -12 -16 -20 -43 -20 -65 0 -20 -5 -42 -10 -49 -6 -7 -7 -18 -2 -26 9 -15 -4 -55 -28 -83 -15 -18 -8 -58 10 -58 5 0 19 11 30 25 11 14 28 25 37 25 10 0 30 9 44 20 14 11 34 20 45 20 12 0 24 5 27 11 4 5 12 8 18 6 5 -1 25 12 44 31 18 18 42 35 53 37 23 5 90 54 90 66 0 5 7 9 15 9 8 0 15 6 15 14 0 7 11 21 24 29 13 9 45 43 71 76 25 32 55 61 66 64 11 3 18 11 17 19 -2 7 4 13 12 13 27 1 41 16 66 71 19 42 30 54 47 54 17 0 28 10 40 35 9 19 23 35 31 35 8 0 17 14 21 31 4 19 15 33 26 36 10 3 19 11 19 18 0 19 74 125 88 125 6 0 12 4 12 9 0 13 36 69 93 147 26 36 47 71 47 79 0 7 11 27 25 43 14 17 25 36 25 44 0 18 44 61 53 51 4 -3 7 4 7 16 0 12 6 24 14 27 8 3 12 12 9 19 -3 8 20 38 56 72 34 31 61 61 61 66 0 6 11 22 25 36 14 14 39 43 56 63 16 20 38 40 48 43 11 3 31 24 45 46 15 22 30 37 35 35 4 -3 19 6 32 20 31 33 86 67 98 60 5 -3 28 5 53 18 39 21 57 23 161 23 70 -1 121 3 127 9 6 6 32 9 59 6 34 -3 56 1 73 12 20 13 47 15 159 12 180 -6 182 -6 193 -38 7 -20 4 -38 -12 -76 -27 -63 -32 -112 -19 -190 8 -51 17 -70 45 -98 19 -19 40 -34 47 -34 6 0 32 -10 56 -23 44 -23 117 -28 143 -9 6 4 26 9 45 11 19 2 46 8 60 13 26 11 46 14 111 21 19 2 51 14 70 26 30 19 44 22 102 17 42 -4 69 -2 73 5 10 16 663 7 693 -10 13 -7 58 -15 100 -18 43 -4 91 -14 107 -23 18 -10 58 -17 99 -19 38 -1 73 -4 77 -6 7 -5 23 -7 133 -20 27 -3 54 -9 60 -12 6 -4 16 -8 21 -8 21 -1 80 -18 90 -25 12 -9 65 -17 207 -28 59 -5 114 -15 122 -21 8 -7 43 -15 78 -17 35 -3 90 -10 123 -15 33 -5 98 -15 145 -21 47 -7 88 -17 92 -22 4 -7 60 -11 143 -12 128 -1 137 -2 151 -23 9 -12 13 -28 10 -36 -3 -9 4 -21 18 -30 27 -18 49 -62 40 -77 -4 -6 -2 -8 4 -4 13 8 54 -43 48 -60 -3 -7 2 -18 10 -24 8 -7 14 -21 14 -31 0 -11 6 -19 13 -19 14 0 77 -57 77 -70 0 -5 -4 -12 -10 -15 -5 -3 -10 -17 -10 -31 0 -13 5 -24 10 -24 17 0 11 -27 -7 -34 -15 -6 -13 -11 14 -32 20 -15 38 -43 48 -75 10 -28 23 -53 31 -56 8 -3 24 -27 35 -54 12 -27 27 -49 33 -49 17 0 61 -73 47 -78 -20 -7 -12 -40 19 -70 30 -31 38 -56 20 -67 -6 -4 -6 -13 -1 -23 26 -51 42 -101 41 -132 -1 -19 1 -45 5 -57 5 -16 1 -24 -14 -32 -25 -14 -27 -30 -5 -45 14 -11 14 -18 -2 -76 -9 -36 -25 -71 -35 -78 -10 -8 -15 -20 -13 -27 7 -18 85 -7 104 15 19 21 45 32 87 36 18 2 47 9 65 18 18 8 43 17 56 21 12 3 27 15 33 26 7 14 16 18 29 14 14 -4 27 2 44 20 14 15 29 24 34 21 5 -3 17 3 27 14 10 11 26 20 37 20 10 0 17 6 15 13 -1 6 5 12 13 12 8 0 23 8 33 17 9 10 23 18 31 18 8 0 16 7 20 15 3 8 10 15 16 15 6 0 26 11 43 23 18 13 52 34 77 46 25 13 54 31 65 41 11 10 36 23 57 29 20 7 39 18 42 26 3 8 10 15 16 15 6 0 26 11 44 25 18 14 39 25 48 25 16 0 68 50 68 66 0 6 17 19 38 30 57 29 122 76 122 88 0 6 10 16 22 21 13 6 27 19 33 31 6 12 39 45 73 73 35 29 66 59 68 66 3 7 23 25 45 40 22 14 68 53 101 86 34 32 67 59 74 59 7 0 18 9 24 19 13 25 96 52 151 50 24 -1 63 1 86 4 24 4 45 2 48 -3 4 -6 12 -7 18 -3 18 11 220 13 234 2 6 -6 14 -6 17 -1 7 11 126 10 144 -2 7 -4 40 -5 72 -1 32 4 64 4 71 0 6 -5 66 -10 131 -12 117 -4 226 11 281 39 17 9 64 17 124 21 12 1 25 5 28 9 4 4 65 4 136 1 82 -4 133 -2 141 4 7 6 42 11 78 13 36 1 81 4 100 6 19 3 64 7 100 10 36 3 70 10 75 14 6 5 71 10 145 11 74 1 142 5 150 9 8 4 53 10 100 14 110 9 176 20 192 33 8 6 55 10 113 9 55 -1 115 2 132 7 18 4 62 9 97 11 35 1 70 7 78 13 16 13 7 12 226 22 117 6 188 13 197 21 8 7 15 9 15 5 0 -4 6 -3 13 2 6 5 23 10 37 11 24 1 130 14 140 17 3 1 12 5 20 8 8 3 38 8 65 11 28 2 50 5 50 6 0 1 21 3 46 5 26 1 62 7 80 13 19 6 66 13 104 17 111 10 137 14 149 24 14 10 57 20 114 26 26 2 49 11 56 21 7 9 19 15 27 12 8 -3 25 -1 39 5 14 5 32 10 40 11 27 4 75 17 95 27 11 6 33 11 48 13 15 1 33 8 39 14 7 7 27 12 44 12 18 0 36 5 39 10 3 6 16 10 28 10 13 0 31 6 42 14 25 16 96 41 112 38 6 -1 30 7 52 19 54 28 156 51 196 43 24 -4 34 -2 38 10 5 11 14 14 35 10 19 -4 39 0 54 10 14 9 33 14 42 10 9 -3 22 -2 29 3 11 9 71 23 162 38 22 4 45 11 52 17 7 5 17 7 23 3 6 -4 17 -2 25 5 7 6 19 10 27 9 23 -5 107 12 114 22 3 6 19 7 35 4 19 -4 38 -1 52 8 15 10 50 14 112 14 88 0 200 17 220 33 6 5 48 11 94 15 47 4 103 13 125 20 23 8 52 14 66 13 14 0 61 5 105 11 44 6 93 11 109 11 15 0 34 4 40 9 7 6 54 13 106 16 52 3 130 8 173 10 71 4 150 18 187 33 8 3 30 7 49 9 18 2 44 12 58 23 17 14 33 17 59 13 26 -4 46 0 75 16 21 12 43 20 47 17 5 -3 30 15 56 40 26 24 52 44 57 44 6 0 34 18 63 40 29 22 57 40 62 40 4 0 38 31 75 70 41 42 69 65 72 57 3 -6 6 13 6 43 0 37 -2 50 -8 41 -7 -11 -11 -4 -16 25 -10 57 -36 103 -71 125 -40 24 -61 24 -74 -1 -6 -11 -15 -18 -20 -15 -6 3 -7 -1 -4 -9 4 -10 -3 -20 -20 -27 -21 -10 -24 -17 -19 -37 4 -19 -1 -29 -23 -48 -16 -13 -35 -23 -41 -24 -7 0 -13 -5 -13 -11 0 -18 -44 -49 -61 -43 -9 2 -19 -2 -22 -11 -5 -11 -15 -13 -37 -9 -22 5 -36 1 -50 -11 -19 -17 -21 -17 -38 -2 -24 22 -51 22 -68 0 -11 -15 -16 -16 -31 -5 -10 6 -25 15 -33 18 -35 13 -65 34 -62 44 1 5 -4 10 -12 10 -36 0 -221 124 -210 142 3 4 2 7 -3 6 -14 -4 -74 32 -69 41 7 10 -28 43 -36 35 -4 -3 -16 0 -28 6 -12 6 -19 14 -16 17 10 10 -15 33 -36 33 -10 0 -30 11 -44 25 -14 14 -31 25 -38 25 -8 0 -19 6 -25 14 -7 8 -28 22 -47 31 -19 9 -32 20 -29 26 4 5 -7 12 -24 15 -17 4 -36 13 -42 20 -6 8 -16 14 -20 14 -14 0 -99 61 -144 103 -22 20 -49 40 -60 43 -34 11 -76 45 -69 56 4 7 2 8 -4 4 -14 -8 -61 24 -62 42 0 6 -3 12 -7 12 -17 0 -83 70 -78 82 3 8 23 13 53 14 175 1 318 8 327 14 6 5 26 7 45 6 19 -2 41 2 47 7 23 17 165 13 202 -6 19 -9 48 -17 65 -17 47 -1 126 -24 136 -40 5 -8 12 -11 16 -8 3 4 18 1 33 -6 14 -7 34 -11 44 -9 9 3 17 0 17 -6 0 -6 5 -11 12 -11 6 0 20 -7 30 -17 10 -9 33 -16 54 -15 30 1 34 -1 29 -17 -7 -22 16 -44 38 -35 8 3 18 1 22 -5 3 -6 16 -9 28 -6 27 7 70 -33 67 -61 -4 -36 0 -41 25 -36 19 3 34 -6 71 -44 44 -45 50 -47 103 -49 78 -3 131 23 184 92 23 30 41 59 39 65 -1 6 4 21 12 33 14 21 14 27 0 55 -9 17 -14 41 -11 52 8 29 -23 70 -87 118 -29 21 -59 45 -67 52 -8 8 -31 24 -52 37 -21 13 -43 28 -50 35 -6 6 -60 34 -118 62 -58 29 -118 63 -134 78 -15 14 -32 23 -37 20 -5 -3 -25 6 -44 21 -19 15 -41 24 -49 21 -8 -3 -36 4 -62 16 -27 12 -51 21 -54 20 -3 -1 -39 12 -80 27 -41 16 -90 34 -109 41 -19 7 -55 22 -80 33 -25 11 -51 20 -58 18 -8 -1 -19 2 -25 7 -7 5 -30 15 -52 22 -22 7 -44 16 -50 20 -5 4 -35 15 -65 25 -125 41 -268 95 -296 112 -12 8 -29 11 -38 7 -10 -4 -32 4 -55 19 -25 16 -53 26 -77 26 -50 0 -115 14 -184 38 -30 11 -60 18 -66 16 -7 -2 -31 7 -55 20 -24 13 -50 22 -57 20 -7 -3 -22 3 -32 12 -14 13 -28 15 -58 10 -25 -4 -42 -2 -47 4 -3 6 -15 11 -26 11 -11 0 -27 7 -35 15 -10 10 -35 15 -69 15 -30 0 -57 5 -60 10 -4 6 -10 8 -15 5 -4 -2 -54 0 -111 6 -57 6 -123 11 -147 10 -28 -1 -44 4 -48 13 -7 18 -59 40 -79 32 -8 -3 -28 -1 -43 6 -15 6 -38 15 -52 20 -14 5 -38 16 -53 24 -16 8 -33 11 -38 8 -6 -3 -16 -1 -24 6 -8 7 -27 9 -49 4 -23 -4 -42 -2 -51 6 -8 7 -36 11 -67 9 -29 -2 -66 0 -83 4 -16 3 -106 9 -199 12 -101 3 -175 10 -183 17 -8 6 -38 9 -77 6 -37 -3 -71 -1 -82 6 -10 6 -28 12 -39 13 -56 5 -111 17 -122 26 -9 6 -17 6 -26 -2 -10 -7 -23 -8 -48 0 -19 6 -51 10 -73 10 -21 -1 -52 5 -70 13 -17 8 -54 19 -81 25 -28 5 -64 15 -80 22 -17 7 -43 14 -59 16 -16 2 -34 7 -40 12 -9 8 -50 15 -146 26 -8 1 -28 7 -45 14 -16 8 -64 17 -105 21 -41 4 -93 16 -115 25 -27 12 -71 19 -135 21 -117 4 -179 13 -204 30 -12 8 -34 11 -61 7 -26 -3 -45 -1 -49 6 -9 14 -51 14 -77 0 -12 -6 -28 -7 -37 -4 -19 8 -171 9 -179 2 -2 -3 -26 -4 -51 -2 -164 12 -362 17 -682 15 -452 -2 -559 -7 -613 -29 -22 -9 -33 -8 -49 3 -14 10 -28 12 -43 6 -13 -5 -87 -10 -165 -11 -78 -1 -162 -6 -185 -10 -23 -4 -78 -10 -122 -12 -45 -2 -87 -8 -94 -13 -7 -4 -54 -9 -103 -11 -111 -4 -139 -7 -154 -17 -6 -4 -21 -2 -32 4 -14 7 -26 8 -33 2 -16 -13 -96 -22 -247 -28 -71 -3 -145 -11 -172 -20 -26 -8 -53 -14 -60 -12 -7 1 -22 -3 -33 -9 -11 -5 -46 -13 -78 -17 -32 -3 -72 -13 -87 -21 -16 -8 -45 -15 -64 -15 -38 0 -120 -17 -147 -30 -22 -11 -187 -11 -194 0 -3 5 -11 7 -18 4 -7 -2 -65 9 -129 26 -64 16 -134 30 -156 30 -21 0 -62 7 -90 15 -38 12 -57 13 -71 5 -27 -14 -147 -13 -174 2 -26 13 -252 13 -307 -2 -19 -5 -91 -11 -160 -14 -69 -2 -127 -6 -130 -7 -3 -1 -12 -2 -20 -3 -23 -2 -14 -21 12 -24 12 -2 31 -10 41 -17 11 -8 25 -11 32 -8 8 2 18 -5 25 -16 6 -12 19 -21 29 -21 10 0 24 -7 31 -15 7 -9 21 -13 31 -10 10 3 23 -1 31 -11 7 -9 24 -27 37 -40 13 -13 21 -27 18 -31 -4 -3 -30 -7 -58 -9 -28 -1 -56 -7 -61 -12 -6 -6 -25 -8 -44 -5 -25 4 -35 2 -40 -11 -3 -9 -16 -16 -28 -16 -12 0 -46 -9 -76 -20 -30 -11 -76 -20 -102 -20 -26 0 -50 -5 -53 -10 -4 -6 -12 -9 -18 -8 -7 1 -35 -10 -64 -24 -28 -15 -72 -30 -98 -33 -25 -4 -48 -11 -50 -16 -3 -4 -23 -6 -45 -3 -30 4 -41 1 -48 -13 -8 -14 -14 -15 -34 -6 -12 6 -34 11 -47 11 -13 1 -33 10 -46 22 -12 11 -24 18 -27 15 -8 -9 -78 22 -78 34 0 6 -6 8 -14 5 -7 -3 -28 8 -46 25 -18 16 -39 27 -46 24 -8 -3 -17 2 -20 11 -3 9 -12 16 -20 16 -8 0 -14 7 -14 15 0 8 -7 15 -16 15 -9 0 -27 11 -40 25 -13 14 -32 25 -43 25 -11 0 -32 12 -48 28 -15 15 -40 33 -55 39 -16 7 -28 17 -28 22 0 14 -39 34 -80 41 -22 3 -35 11 -35 21 0 29 -34 67 -70 79 -19 6 -35 16 -35 21 0 6 -15 16 -34 24 -19 8 -38 19 -41 25 -4 6 -11 8 -16 5 -5 -4 -12 1 -15 9 -3 9 -12 16 -19 16 -6 0 -20 9 -29 19 -23 25 -112 68 -156 76 -47 8 -103 25 -114 36 -6 5 -12 8 -15 8 -4 -1 -19 -4 -36 -6z"/>
 </g>
<g id="layer107" fill="#dfe1e1" stroke="none">
 <path d="M3771 4948 c-36 -10 -131 -72 -144 -93 -4 -8 -3 -16 3 -20 16 -10 12 -48 -4 -42 -18 7 -42 -18 -26 -28 18 -11 11 -42 -14 -58 -14 -10 -28 -33 -35 -61 -6 -25 -15 -47 -20 -50 -5 -3 -7 -15 -4 -26 8 -29 -5 -70 -22 -70 -15 0 -16 -3 -19 -50 -2 -30 -25 -90 -35 -88 -35 4 -50 -5 -61 -37 -6 -20 -22 -48 -34 -63 -12 -15 -31 -63 -41 -107 -12 -52 -27 -88 -42 -103 -28 -27 -74 -116 -78 -148 -3 -31 -32 -74 -49 -74 -15 0 -46 -52 -46 -77 0 -7 -6 -16 -14 -19 -9 -4 -12 -17 -9 -48 5 -37 2 -44 -20 -59 -14 -9 -29 -27 -33 -39 -4 -13 -15 -34 -25 -47 -11 -13 -19 -32 -19 -42 0 -35 -46 -53 -139 -55 -47 -1 -97 -7 -111 -12 -14 -5 -60 -9 -102 -10 -42 0 -81 -3 -86 -6 -6 -3 -40 -8 -77 -11 -36 -3 -74 -9 -85 -15 -13 -7 -28 -6 -52 3 -18 8 -45 12 -60 11 -15 -1 -32 3 -38 11 -6 7 -19 11 -29 8 -33 -8 -337 150 -367 192 -13 18 -19 22 -90 62 -22 12 -63 42 -93 67 -30 25 -58 43 -62 40 -4 -2 -19 10 -34 28 -15 18 -37 37 -48 43 -11 5 -28 24 -37 40 -9 17 -28 36 -43 43 -14 7 -84 71 -155 142 -70 72 -133 130 -139 130 -6 0 -38 27 -71 60 -32 33 -64 60 -70 60 -6 0 -17 12 -24 27 -7 15 -24 33 -38 40 -14 7 -45 34 -70 60 -46 49 -122 108 -178 137 -16 8 -37 22 -44 30 -8 8 -35 25 -60 38 -73 37 -218 108 -283 138 -33 15 -74 35 -92 43 -27 13 -34 13 -43 2 -7 -8 -30 -15 -53 -17 -39 -3 -42 -5 -39 -30 1 -16 -2 -36 -7 -47 -8 -14 -6 -23 9 -36 11 -10 20 -14 20 -10 0 5 10 -1 22 -12 13 -12 47 -34 76 -49 67 -36 122 -81 122 -100 0 -22 -68 -47 -108 -40 -29 4 -33 3 -27 -12 13 -34 23 -117 14 -128 -5 -6 -4 -15 2 -21 6 -6 11 -31 11 -55 0 -24 0 -52 0 -63 0 -11 0 -56 1 -100 0 -62 -4 -87 -18 -108 -16 -25 -16 -32 -5 -67 10 -29 10 -43 2 -53 -18 -22 -21 -85 -4 -92 11 -4 13 -16 9 -49 -4 -24 -3 -47 1 -51 15 -15 26 -231 14 -265 -6 -16 -3 -35 11 -63 16 -35 17 -45 7 -83 -7 -23 -9 -48 -5 -55 15 -24 15 -76 1 -88 -22 -18 -13 -311 9 -345 9 -14 18 -43 20 -66 2 -23 10 -52 18 -64 13 -19 13 -27 1 -55 -13 -30 -12 -35 3 -47 10 -8 35 -13 57 -12 40 3 63 -17 32 -27 -45 -14 -51 -17 -38 -22 6 -3 12 -14 12 -25 0 -17 -5 -20 -31 -16 -33 5 -51 -14 -30 -35 6 -6 11 -19 11 -28 0 -9 11 -24 24 -33 29 -18 30 -47 5 -89 -14 -24 -15 -32 -4 -55 7 -15 12 -38 11 -52 -1 -14 3 -28 8 -31 5 -4 1 -17 -8 -30 -19 -28 -20 -53 -4 -113 10 -37 9 -48 -4 -68 -13 -20 -14 -27 -2 -42 7 -11 11 -22 9 -27 -3 -4 0 -9 5 -11 6 -2 11 -14 12 -28 1 -14 7 -32 14 -40 6 -8 15 -35 18 -60 9 -67 13 -83 21 -103 5 -12 1 -32 -9 -54 -14 -30 -15 -46 -6 -113 11 -82 10 -139 -2 -146 -11 -7 -10 -52 1 -58 10 -6 9 -20 -3 -48 -4 -9 -3 -33 3 -51 7 -19 11 -52 11 -73 -1 -22 2 -66 6 -99 9 -86 5 -136 -12 -163 -12 -18 -13 -30 -5 -50 5 -15 9 -46 9 -69 0 -24 5 -49 11 -57 9 -11 8 -23 -5 -53 -22 -53 -45 -149 -38 -167 3 -8 -2 -28 -10 -45 -15 -29 -22 -91 -10 -91 3 0 17 14 31 30 23 28 83 68 83 55 0 -3 10 1 22 9 23 15 26 16 52 16 8 0 33 16 56 35 23 19 45 33 50 30 4 -2 28 13 53 35 25 22 50 40 56 40 6 0 11 6 11 13 0 6 18 27 40 46 22 19 40 39 40 46 0 6 20 31 45 54 25 23 45 46 45 52 0 5 6 9 13 9 23 0 54 33 73 78 14 31 24 42 40 42 14 0 30 12 43 33 31 47 70 99 92 123 10 11 19 25 19 31 0 5 9 18 20 28 11 10 20 23 20 29 0 7 15 25 33 42 18 17 41 49 52 70 11 22 39 62 62 90 24 28 40 54 36 58 -4 3 3 20 15 36 12 16 22 34 22 39 0 17 61 81 71 75 5 -3 6 2 3 10 -3 9 3 20 14 27 11 7 18 19 15 26 -3 8 18 36 49 66 30 29 61 65 69 81 8 16 21 31 29 33 8 2 23 17 32 33 9 16 35 42 57 57 21 15 44 38 50 50 5 12 23 30 38 40 15 10 48 33 72 51 24 18 50 31 58 28 8 -3 28 4 44 17 28 20 43 22 160 23 79 1 135 6 143 13 7 6 22 8 31 4 12 -4 16 -3 12 4 -4 6 5 11 21 11 214 10 362 10 367 2 4 -6 11 -8 16 -4 16 9 39 -16 39 -43 0 -13 -7 -40 -16 -61 -28 -67 -29 -76 -20 -157 4 -33 8 -69 9 -80 3 -30 103 -105 141 -105 7 0 18 -6 25 -13 10 -13 67 -10 131 8 14 4 32 8 40 10 8 1 22 4 30 7 67 23 90 28 117 28 17 0 53 9 79 21 29 12 65 19 89 18 23 -2 46 0 51 4 6 3 108 9 227 13 212 7 464 -6 512 -26 11 -5 55 -11 98 -14 42 -3 94 -13 115 -22 20 -9 58 -16 84 -14 26 1 56 -4 68 -10 19 -10 85 -19 150 -20 32 0 158 -39 165 -50 3 -5 12 -7 20 -4 8 3 30 1 49 -6 19 -6 84 -15 146 -20 61 -5 118 -14 125 -20 15 -12 24 -14 155 -26 104 -10 92 -8 109 -18 10 -6 12 -5 7 2 -8 13 51 5 69 -8 11 -9 107 -18 260 -25 109 -5 126 -15 140 -77 4 -16 11 -28 16 -28 13 0 41 -59 33 -72 -4 -6 -3 -8 4 -4 14 8 54 -43 48 -61 -3 -8 21 -40 56 -74 54 -53 60 -63 50 -80 -15 -23 -16 -59 -2 -59 13 0 13 -27 0 -32 -6 -2 8 -27 30 -57 23 -30 38 -60 36 -68 -3 -8 4 -24 17 -36 12 -12 31 -41 42 -64 11 -24 25 -43 32 -43 16 0 53 -54 53 -78 0 -12 -5 -24 -11 -28 -7 -4 1 -17 20 -35 27 -24 31 -35 31 -79 0 -28 7 -64 15 -80 8 -15 17 -50 19 -77 5 -65 5 -63 14 -60 4 1 8 -2 10 -8 1 -5 -6 -10 -17 -11 -10 -1 -23 -4 -30 -8 -15 -10 -14 -37 2 -33 14 2 14 -33 -3 -116 -7 -34 -17 -56 -24 -55 -11 3 -16 -3 -16 -21 0 -16 84 1 100 19 19 22 58 43 69 36 13 -9 85 15 97 33 7 9 16 13 20 9 4 -4 20 4 37 18 18 16 36 22 48 19 12 -4 27 2 41 18 25 25 82 57 105 57 7 0 12 6 10 13 -1 6 5 12 13 12 8 0 23 8 33 17 9 10 24 18 32 18 8 0 15 4 15 8 0 10 71 56 140 93 25 13 54 31 65 40 11 9 37 22 58 29 20 6 37 15 37 19 0 10 114 81 129 81 6 0 11 6 11 13 0 25 100 101 178 136 12 6 22 16 22 23 0 7 10 18 23 23 12 6 28 25 36 43 8 17 19 32 25 32 16 1 56 36 56 49 0 6 7 11 15 11 9 0 19 8 22 18 4 9 10 19 13 22 34 25 97 79 113 98 11 12 24 22 29 22 5 0 24 16 44 35 19 19 41 35 48 35 8 0 17 7 20 15 15 40 66 47 404 51 179 2 329 1 334 -2 11 -7 216 -18 298 -16 82 2 187 20 223 39 16 8 35 12 43 9 7 -3 29 1 49 10 28 12 62 13 170 8 88 -5 139 -3 147 3 7 6 45 12 83 13 39 1 86 4 105 6 19 3 64 7 100 10 36 3 70 10 75 14 6 5 71 9 145 11 74 1 143 6 152 11 10 4 52 10 95 12 73 4 159 18 193 33 8 3 35 7 60 9 25 1 86 6 135 9 50 4 115 8 146 9 31 1 63 7 71 13 14 13 81 19 297 28 69 3 130 10 138 16 7 6 13 8 13 4 0 -4 7 -2 15 5 8 6 19 9 24 6 5 -4 13 -1 17 5 4 6 19 9 38 5 23 -4 27 -3 16 4 -11 8 -2 10 35 9 28 -1 57 0 65 3 23 8 145 30 193 34 23 2 71 8 107 15 36 6 73 11 83 12 9 1 17 5 17 9 0 4 5 8 11 8 5 0 7 -5 3 -11 -4 -8 0 -8 15 0 12 7 26 9 32 5 6 -3 21 -2 32 3 47 21 114 40 137 39 14 0 33 7 43 17 10 10 26 16 34 13 9 -4 22 -1 29 5 8 6 14 9 14 5 0 -3 12 -1 28 5 15 6 41 13 57 16 17 3 53 14 80 24 28 10 58 19 67 19 9 0 72 21 140 46 68 26 137 50 153 54 17 5 57 16 90 25 32 9 68 15 80 14 11 -1 32 3 47 9 15 6 35 9 43 6 8 -4 31 1 50 10 19 10 40 14 46 11 5 -4 15 -2 22 3 12 10 101 30 163 36 17 2 41 9 53 15 12 7 26 9 32 6 5 -4 16 -2 24 5 7 6 19 10 27 9 20 -4 102 12 114 23 7 5 28 8 47 6 19 -1 41 3 49 9 8 7 52 11 111 11 62 -1 102 4 111 11 8 7 23 10 33 7 10 -3 30 1 46 9 15 8 51 15 80 17 28 1 57 6 64 11 7 5 18 5 24 1 8 -4 9 -3 5 4 -4 7 3 11 21 11 56 -2 155 10 167 20 6 5 52 12 101 15 50 2 108 11 130 19 22 8 68 14 102 13 33 -1 59 2 57 6 -2 3 24 6 58 7 63 0 87 3 183 17 28 5 55 9 60 9 28 4 72 20 92 32 12 8 27 12 33 8 5 -3 16 -3 23 2 6 4 24 8 39 9 15 1 34 7 42 14 9 6 21 10 27 8 7 -2 30 12 51 32 22 19 61 49 88 65 103 64 157 106 199 155 33 39 46 48 52 38 5 -8 9 8 9 42 0 37 -3 50 -9 41 -8 -12 -11 -8 -16 15 -20 92 -51 135 -108 149 -20 5 -28 2 -37 -14 -6 -12 -15 -19 -20 -16 -6 3 -7 -1 -4 -9 4 -10 -3 -20 -19 -27 -22 -10 -25 -16 -20 -45 3 -21 1 -34 -5 -34 -6 0 -34 -20 -63 -45 -34 -29 -59 -43 -70 -40 -10 3 -19 -1 -22 -10 -5 -11 -15 -13 -37 -9 -22 5 -36 1 -50 -11 -19 -17 -21 -17 -38 -2 -23 21 -58 22 -66 2 -7 -19 -30 -19 -46 0 -7 8 -16 12 -21 9 -8 -5 -71 34 -77 49 -2 4 -8 7 -14 7 -10 0 -65 35 -153 98 -22 16 -39 35 -37 41 1 7 -1 10 -6 7 -12 -7 -74 32 -68 43 7 10 -28 44 -36 35 -10 -10 -49 16 -42 28 5 7 2 8 -5 3 -7 -4 -22 1 -34 13 -30 27 -117 86 -156 106 -18 10 -29 21 -25 28 4 7 3 8 -5 4 -7 -5 -26 3 -46 18 -18 14 -36 26 -39 26 -14 0 -171 112 -171 123 -1 6 -7 11 -14 9 -29 -6 -245 186 -236 210 3 8 23 13 53 14 175 1 318 8 327 14 13 10 99 21 195 25 52 2 86 -2 110 -13 19 -8 66 -21 105 -28 38 -7 74 -19 80 -27 5 -7 17 -14 25 -15 44 -4 85 -13 89 -20 3 -5 13 -12 21 -16 8 -4 26 -13 40 -21 17 -10 28 -11 37 -4 17 15 35 1 28 -20 -7 -22 17 -44 38 -35 8 3 18 1 22 -5 3 -6 16 -9 28 -6 30 8 70 -34 65 -66 -2 -20 1 -24 24 -24 26 -1 64 -28 111 -79 22 -24 90 -24 160 1 36 13 58 30 89 71 23 29 43 65 44 79 2 14 7 30 12 35 6 6 5 20 -4 36 -8 15 -14 36 -14 47 0 34 -52 96 -129 155 -18 14 -45 34 -59 45 -43 33 -80 55 -207 123 -214 114 -244 130 -248 125 -2 -2 -26 6 -53 18 -27 12 -59 23 -71 25 -13 1 -60 18 -105 37 -46 19 -102 40 -126 47 -23 7 -47 19 -53 26 -6 7 -16 11 -23 8 -7 -3 -26 2 -42 11 -16 8 -35 15 -42 15 -14 0 -117 38 -192 71 -25 11 -57 22 -72 24 -14 3 -50 16 -80 30 -29 14 -62 25 -73 25 -12 0 -38 9 -60 20 -21 11 -63 22 -93 24 -29 3 -59 9 -65 14 -7 5 -25 12 -42 14 -47 8 -167 40 -200 54 -16 7 -43 16 -60 20 -16 4 -33 12 -37 18 -4 6 -26 9 -48 7 -40 -3 -90 11 -118 32 -7 6 -28 12 -45 13 -18 2 -57 6 -87 10 -30 4 -80 8 -110 9 -30 1 -63 6 -73 10 -10 4 -46 8 -80 9 -41 1 -61 5 -60 12 3 15 -52 38 -72 30 -8 -3 -28 -1 -43 6 -15 6 -38 15 -52 20 -14 5 -37 16 -53 24 -15 7 -34 11 -41 8 -8 -3 -17 0 -21 6 -4 7 -24 8 -56 4 -33 -4 -54 -2 -64 6 -8 6 -34 11 -57 9 -24 -1 -63 0 -88 4 -25 4 -123 9 -218 11 -116 3 -178 8 -188 17 -9 7 -30 10 -58 6 -29 -4 -49 -2 -64 8 -11 8 -27 12 -35 9 -9 -3 -24 -1 -35 5 -11 6 -48 11 -83 12 -35 2 -75 7 -89 12 -14 5 -40 9 -59 8 -30 0 -107 18 -276 68 -33 10 -67 20 -75 24 -8 3 -35 8 -60 10 -25 3 -58 7 -75 11 -16 3 -37 7 -45 9 -8 1 -22 7 -30 12 -8 5 -37 10 -65 11 -27 1 -75 9 -105 18 -97 29 -142 34 -220 24 -14 -2 -31 2 -38 9 -8 7 -24 11 -37 9 -13 -2 -31 2 -41 9 -10 7 -24 11 -31 8 -7 -3 -13 0 -13 7 0 6 -5 8 -12 3 -19 -11 -38 -10 -82 4 -28 10 -42 10 -52 2 -7 -6 -31 -8 -56 -4 -24 3 -56 2 -73 -3 -18 -5 -39 -5 -53 1 -15 7 -33 7 -56 0 -18 -6 -40 -7 -47 -3 -23 13 -326 21 -694 19 -192 -1 -376 -1 -407 0 -32 1 -66 -3 -77 -8 -29 -16 -118 -26 -186 -22 -16 1 -64 -2 -105 -8 -106 -14 -193 -14 -184 1 5 7 3 8 -7 3 -7 -5 -51 -11 -98 -12 -46 -2 -92 -8 -102 -14 -18 -9 -34 -10 -133 -10 -22 1 -44 -3 -50 -8 -6 -5 -39 -9 -74 -10 -35 0 -72 -3 -82 -6 -11 -3 -29 -1 -40 5 -16 9 -25 8 -35 0 -8 -7 -35 -14 -60 -15 -25 -2 -52 -9 -60 -15 -10 -9 -19 -9 -35 0 -16 9 -34 9 -69 0 -26 -6 -69 -10 -97 -9 -27 1 -53 0 -59 -1 -5 -2 -14 -4 -20 -5 -5 -1 -17 -4 -25 -8 -8 -3 -31 -8 -50 -11 -19 -3 -75 -15 -125 -26 -123 -29 -171 -38 -230 -46 -27 -4 -55 -11 -62 -16 -17 -14 -231 -2 -293 16 -104 31 -125 36 -175 41 -86 10 -119 16 -143 28 -17 8 -25 8 -34 -1 -15 -15 -147 -16 -185 -1 -34 13 -245 13 -293 -1 -19 -5 -64 -10 -100 -10 -97 -1 -210 -16 -223 -30 -9 -10 -9 -11 0 -6 7 4 27 -1 45 -11 18 -9 38 -16 45 -15 7 2 17 -7 23 -18 6 -11 21 -20 34 -20 13 0 29 -7 36 -15 7 -8 16 -12 21 -9 14 8 47 -14 54 -36 3 -11 13 -20 21 -20 19 0 18 -26 -2 -34 -9 -3 -35 -6 -59 -6 -24 0 -46 -4 -50 -9 -3 -5 -21 -7 -41 -4 -26 4 -34 2 -32 -8 2 -8 -11 -15 -37 -20 -22 -3 -60 -13 -85 -22 -25 -9 -64 -17 -88 -17 -23 0 -50 -4 -60 -9 -75 -37 -138 -62 -174 -67 -24 -4 -52 -13 -63 -20 -11 -7 -35 -12 -52 -10 -18 1 -33 -2 -33 -7 0 -5 -12 -6 -27 -2 -16 4 -39 9 -53 12 -14 2 -33 11 -42 20 -10 9 -30 17 -45 18 -32 3 -123 52 -123 66 0 5 -9 9 -20 9 -11 0 -29 9 -40 20 -11 11 -24 20 -30 20 -5 0 -10 7 -10 15 0 8 -8 15 -19 15 -10 0 -30 11 -45 25 -15 14 -31 25 -37 25 -15 0 -81 45 -121 83 -25 23 -51 38 -79 42 -36 6 -43 12 -56 44 -10 25 -26 42 -53 55 -22 10 -48 27 -59 37 -11 11 -27 19 -35 19 -7 0 -17 7 -20 16 -3 8 -10 12 -16 9 -6 -3 -13 1 -16 9 -3 9 -10 16 -14 16 -4 0 -31 15 -59 34 -51 34 -60 38 -181 72 -36 9 -69 21 -75 24 -5 4 -25 3 -44 -2z"/>
 <path d="M300 1960 c0 -7 3 -10 7 -7 3 4 3 10 0 14 -4 3 -7 0 -7 -7z"/>
 </g>
<g id="layer108" fill="#ffffff" stroke="none">
 <path d="M3745 4935 c-37 -19 -97 -62 -107 -77 -3 -7 -2 -21 4 -32 8 -15 7 -22 -8 -33 -10 -7 -21 -13 -26 -13 -4 0 -5 -12 -2 -28 4 -20 -1 -34 -19 -54 -24 -25 -57 -115 -57 -153 0 -9 -9 -33 -19 -53 -10 -20 -25 -57 -32 -82 -12 -38 -18 -46 -42 -48 -22 -3 -32 -12 -44 -40 -8 -20 -24 -46 -34 -58 -20 -21 -49 -116 -49 -159 0 -15 -12 -35 -29 -50 -36 -33 -83 -128 -84 -171 -1 -19 -6 -34 -12 -34 -6 0 -27 -17 -47 -37 -35 -37 -44 -60 -55 -136 -3 -21 -13 -41 -23 -47 -10 -5 -36 -47 -59 -94 -22 -46 -49 -87 -58 -90 -9 -4 -56 -6 -104 -5 -48 1 -93 -2 -100 -7 -12 -7 -122 -19 -259 -29 -30 -2 -68 -9 -85 -15 -22 -9 -38 -9 -61 -1 -17 6 -43 11 -59 11 -46 0 -105 20 -210 72 -144 71 -181 92 -233 138 -26 23 -70 54 -98 71 -29 16 -57 36 -64 44 -7 9 -28 22 -46 31 -18 9 -91 71 -162 138 -71 67 -143 132 -160 144 -17 13 -34 31 -37 42 -4 11 -12 20 -19 20 -6 0 -36 25 -66 56 -30 31 -73 69 -94 85 -22 16 -95 83 -163 148 -143 138 -237 211 -332 259 -14 7 -33 17 -41 22 -63 38 -135 75 -190 97 -36 14 -76 34 -90 43 -36 25 -70 31 -138 24 l-60 -7 -4 -44 c-3 -47 5 -73 26 -73 7 0 28 -14 47 -31 19 -17 48 -37 65 -44 35 -14 114 -82 114 -97 0 -14 -65 -38 -106 -38 -33 0 -36 -2 -30 -22 13 -46 25 -196 25 -311 -1 -101 -4 -124 -21 -154 -20 -33 -20 -35 -3 -68 17 -31 18 -35 2 -59 -19 -29 -22 -57 -7 -72 15 -15 30 -167 30 -309 0 -88 4 -128 15 -149 11 -20 12 -33 5 -40 -13 -13 -13 -93 0 -101 15 -9 12 -41 -5 -55 -12 -10 -15 -42 -15 -167 0 -134 3 -159 20 -193 11 -22 20 -50 20 -63 0 -13 7 -32 15 -43 18 -24 18 -54 0 -78 -8 -11 -15 -22 -15 -25 0 -14 62 -32 90 -26 26 6 30 4 30 -14 0 -13 -8 -21 -22 -23 -13 -2 -22 -9 -20 -16 1 -6 3 -18 5 -24 1 -8 -12 -14 -35 -16 -21 -2 -38 -5 -38 -8 0 -8 25 -49 47 -77 24 -30 25 -85 3 -112 -8 -9 -8 -20 -2 -32 6 -10 13 -40 17 -66 6 -38 4 -52 -10 -67 -13 -14 -16 -28 -11 -52 16 -74 17 -107 7 -126 -8 -15 -6 -28 9 -58 11 -21 20 -46 20 -56 0 -9 5 -20 10 -23 6 -3 10 -20 10 -36 0 -16 9 -54 19 -84 19 -55 19 -56 1 -98 -16 -36 -17 -50 -9 -81 6 -22 8 -90 4 -169 -3 -73 -5 -141 -4 -152 3 -96 7 -134 14 -145 13 -21 15 -158 3 -187 -13 -33 -11 -174 3 -187 14 -15 11 -49 -7 -74 -14 -21 -34 -101 -36 -147 0 -11 -7 -44 -15 -73 -8 -30 -12 -56 -9 -60 4 -3 23 10 44 30 39 38 99 68 138 68 12 0 44 18 69 40 25 22 52 40 59 40 17 0 180 149 185 168 4 18 96 112 109 112 14 0 58 53 72 88 8 22 19 32 34 32 12 0 28 12 38 28 10 15 33 47 53 72 19 25 52 70 72 100 21 30 55 78 76 105 64 84 105 147 137 210 17 33 51 85 74 115 24 30 51 70 60 87 9 18 30 43 46 55 17 12 30 28 30 35 0 7 3 13 8 13 4 0 25 25 47 56 22 31 68 78 102 105 34 28 64 58 67 67 3 9 23 27 43 40 21 13 53 34 72 48 19 13 39 23 45 21 6 -2 25 5 41 17 27 19 45 21 164 23 92 1 136 5 141 13 16 26 388 40 458 19 29 -9 32 -14 32 -47 -1 -20 -7 -48 -15 -62 -10 -17 -14 -57 -15 -120 0 -116 16 -155 75 -183 22 -10 53 -25 68 -33 41 -20 105 -28 130 -17 53 25 80 33 107 33 16 0 31 4 34 9 3 4 32 11 64 13 32 3 78 16 102 28 43 22 53 22 389 24 250 1 365 -3 416 -12 39 -8 108 -17 155 -21 47 -4 99 -13 115 -20 28 -12 76 -20 260 -40 39 -4 99 -18 135 -30 36 -12 88 -27 115 -32 28 -5 70 -13 95 -19 25 -5 71 -9 102 -10 32 0 77 -6 100 -14 70 -23 94 -26 206 -32 59 -3 122 -12 141 -20 22 -9 86 -17 171 -20 74 -3 148 -7 164 -9 29 -5 55 -29 56 -53 0 -12 57 -103 83 -132 7 -8 25 -40 39 -71 18 -39 38 -64 62 -79 39 -23 42 -35 25 -74 -9 -20 -9 -29 0 -40 7 -8 10 -24 6 -36 -5 -15 3 -31 30 -61 24 -27 35 -48 32 -60 -3 -12 3 -26 17 -37 12 -9 27 -31 34 -48 7 -17 33 -50 57 -74 37 -37 43 -47 38 -74 -4 -25 1 -39 20 -62 21 -25 25 -37 20 -70 -3 -27 0 -51 11 -72 9 -17 16 -41 16 -53 0 -13 10 -43 21 -67 23 -47 17 -62 -25 -62 -15 0 -16 -3 -6 -15 7 -9 10 -28 7 -47 -18 -105 -26 -132 -41 -140 -29 -16 -17 -26 26 -20 28 3 52 15 70 32 20 21 37 27 68 27 25 0 48 7 60 18 11 10 29 19 39 20 10 0 31 11 46 23 16 13 36 20 46 17 11 -4 28 5 48 24 38 37 88 64 102 56 5 -4 8 -1 7 5 -2 7 15 22 38 35 23 12 72 43 111 68 38 26 72 47 77 47 4 0 26 12 49 28 64 41 80 51 111 70 73 44 134 88 171 123 23 22 46 39 52 39 6 0 17 7 24 16 7 9 21 19 30 23 27 10 129 111 129 127 0 8 6 14 13 14 8 0 44 29 80 64 113 109 281 251 327 277 20 10 98 13 380 13 195 0 436 -2 535 -4 178 -5 280 6 312 32 7 6 22 8 34 5 11 -3 36 1 56 9 28 12 59 14 154 8 89 -5 122 -4 134 6 9 8 56 13 125 16 61 1 116 6 123 11 6 4 36 6 65 4 29 -1 58 2 65 7 7 6 73 11 147 13 92 2 142 7 156 16 14 9 49 13 101 12 44 -1 89 4 100 9 11 6 23 9 25 6 3 -3 23 2 44 10 22 8 53 14 69 13 17 0 48 2 70 6 22 4 96 9 164 12 68 2 130 10 137 16 17 14 55 17 247 23 87 2 163 9 170 14 21 17 119 40 202 47 44 3 105 12 135 20 30 7 91 16 135 20 44 3 98 12 120 20 22 7 68 16 103 20 35 3 80 12 100 19 35 13 158 48 232 67 127 31 249 69 385 119 11 4 40 14 65 21 25 7 50 16 55 19 6 4 42 13 80 19 39 7 86 17 106 22 21 5 44 6 53 3 9 -3 22 -1 30 5 7 6 26 13 42 15 16 2 36 6 44 9 22 8 107 27 170 38 81 14 84 14 97 22 7 5 38 10 70 13 32 3 63 10 70 16 7 5 27 8 46 7 19 -2 42 2 50 9 11 9 46 13 112 11 61 -1 100 2 108 10 6 6 26 11 45 11 18 0 41 4 51 9 9 5 39 11 67 14 27 2 58 9 69 15 12 6 60 12 108 15 49 2 93 10 102 17 9 7 62 16 125 20 61 4 116 13 125 20 9 7 75 16 172 22 160 9 305 33 378 62 22 8 54 15 71 16 40 0 119 39 173 84 23 20 49 36 56 36 7 0 32 16 55 35 23 19 45 35 49 35 5 0 40 32 80 71 56 56 71 78 71 101 0 17 -4 27 -10 23 -6 -3 -12 0 -14 7 -2 7 -9 31 -15 53 -18 67 -96 132 -122 102 -26 -32 -69 -104 -69 -118 0 -28 -160 -133 -189 -123 -8 2 -21 -2 -30 -9 -21 -18 -52 -18 -73 0 -14 13 -20 12 -43 -3 -23 -15 -31 -16 -62 -5 -19 7 -52 24 -72 38 -20 14 -46 29 -58 34 -40 15 -183 130 -177 141 4 6 3 8 -3 5 -13 -8 -74 30 -71 45 2 7 -4 12 -13 10 -9 -1 -22 5 -29 13 -7 8 -16 15 -21 15 -5 0 -44 27 -88 60 -44 33 -108 77 -142 98 -34 20 -73 45 -88 54 -14 10 -33 21 -41 24 -8 4 -23 14 -33 22 -9 8 -25 20 -36 26 -22 13 -83 56 -132 94 -19 15 -58 44 -86 65 -55 41 -107 101 -101 118 3 10 79 16 278 22 41 2 80 5 85 9 19 12 138 29 214 31 62 2 84 -2 119 -21 23 -12 59 -22 80 -22 20 0 61 -11 90 -25 30 -14 65 -25 78 -25 13 0 45 -14 71 -30 37 -23 55 -29 77 -24 26 6 28 4 23 -17 -9 -35 7 -45 68 -42 45 2 57 -1 62 -15 3 -9 15 -27 26 -39 16 -18 18 -25 8 -37 -11 -13 -8 -15 21 -11 29 4 36 0 52 -25 9 -17 21 -30 26 -30 5 0 18 -10 30 -22 25 -27 77 -26 154 2 40 15 60 31 84 66 53 74 62 111 44 183 -13 53 -22 67 -73 113 -129 117 -140 124 -289 202 -47 24 -116 62 -155 85 -38 23 -85 46 -105 52 -19 6 -44 14 -55 19 -11 5 -56 21 -99 35 -44 14 -104 37 -133 51 -30 13 -59 24 -66 24 -7 0 -46 13 -87 28 -41 16 -97 37 -125 46 -27 10 -79 29 -115 43 -36 14 -90 33 -120 42 -30 10 -71 26 -90 36 -19 10 -50 20 -70 22 -19 3 -49 14 -66 24 -19 11 -50 19 -77 19 -26 0 -61 6 -79 14 -39 17 -180 56 -201 56 -8 0 -28 7 -43 15 -16 8 -36 15 -44 15 -9 0 -24 6 -35 14 -11 7 -45 15 -77 18 -31 2 -69 13 -84 22 -20 14 -54 20 -128 23 -56 3 -107 10 -113 15 -7 6 -25 8 -40 5 -15 -3 -37 0 -48 6 -11 6 -46 10 -77 9 -48 -1 -62 3 -88 24 -19 17 -36 23 -49 19 -10 -3 -32 0 -47 6 -16 6 -38 15 -49 19 -11 4 -33 13 -50 20 -16 7 -40 12 -52 11 -11 -1 -24 2 -27 7 -3 5 -26 7 -51 4 -28 -3 -56 0 -70 8 -13 7 -35 10 -49 8 -14 -3 -49 -1 -78 3 -29 5 -140 11 -246 13 -108 3 -199 9 -206 15 -7 6 -22 8 -34 4 -12 -3 -29 1 -38 8 -9 8 -31 15 -48 16 -91 6 -217 23 -228 29 -7 5 -27 7 -45 5 -18 -1 -48 2 -68 8 -19 6 -52 16 -72 22 -21 6 -47 14 -58 19 -37 16 -150 42 -215 50 -36 4 -87 15 -115 24 -27 9 -73 16 -102 16 -28 0 -55 4 -58 10 -3 6 -17 10 -30 10 -13 0 -27 4 -30 10 -3 6 -21 10 -39 10 -17 0 -37 5 -43 11 -7 7 -17 8 -29 2 -26 -13 -108 -16 -131 -5 -39 20 -92 32 -143 32 -36 0 -59 5 -72 17 -17 15 -19 15 -36 0 -22 -20 -43 -22 -60 -5 -9 9 -21 8 -53 -2 -31 -11 -48 -11 -70 -3 -21 8 -37 8 -59 0 -24 -9 -35 -9 -53 3 -34 22 -1127 26 -1175 4 -19 -9 -73 -17 -125 -20 -229 -10 -470 -25 -557 -33 -52 -6 -140 -13 -195 -16 -55 -4 -115 -10 -133 -15 -20 -5 -44 -5 -57 0 -15 6 -27 6 -30 0 -4 -6 -18 -10 -32 -10 -14 0 -43 -5 -64 -11 -29 -9 -42 -9 -52 -1 -10 8 -29 9 -68 2 -30 -5 -103 -16 -164 -25 -60 -8 -130 -19 -155 -25 -25 -6 -61 -13 -80 -16 -19 -3 -44 -9 -55 -14 -60 -24 -200 -43 -320 -44 -107 0 -144 4 -210 23 -44 13 -109 27 -145 32 -36 4 -85 13 -110 19 -25 6 -51 10 -57 9 -35 -4 -218 0 -288 8 -44 4 -105 5 -135 1 -141 -19 -230 -28 -289 -29 -54 -1 -133 -16 -93 -18 8 -1 26 -10 42 -21 15 -11 30 -16 34 -13 3 4 20 -3 36 -15 16 -12 33 -22 38 -22 5 0 15 -6 22 -14 6 -8 18 -12 26 -9 16 6 54 -23 54 -42 0 -7 9 -15 21 -18 41 -11 13 -32 -52 -39 -99 -12 -103 -13 -118 -22 -8 -5 -31 -13 -50 -17 -20 -4 -54 -13 -76 -20 -22 -6 -62 -13 -90 -16 -46 -4 -101 -23 -167 -59 -14 -8 -48 -17 -75 -21 -26 -3 -51 -11 -55 -16 -10 -15 -119 -27 -158 -17 -88 22 -230 90 -230 111 0 4 -6 6 -13 3 -7 -2 -33 10 -56 28 -24 18 -79 56 -121 83 -43 28 -106 69 -141 93 -35 24 -75 46 -89 48 -16 4 -33 19 -45 41 -14 25 -45 50 -107 87 -48 28 -87 57 -88 64 0 7 -4 11 -9 8 -5 -4 -23 5 -39 19 -33 27 -128 75 -152 75 -8 0 -44 9 -78 20 -75 24 -78 24 -117 5z"/>
 </g>

</svg>